<svg id="ipuclari-ikon" xmlns="http://www.w3.org/2000/svg" width="60" height="60" viewBox="0 0 60 60">
    <defs>
        <style>
            .cls-2{fill:#d93131}
        </style>
    </defs>
    <g id="bulb" transform="translate(5 5)">
        <path id="Path_56" data-name="Path 56" d="M9.517 50.756a1.083 1.083 0 0 1-.4-.08 1.057 1.057 0 0 1-.653-.977v-9.517H5.287A5.293 5.293 0 0 1 0 34.895V5.287A5.293 5.293 0 0 1 5.287 0h40.182a5.293 5.293 0 0 1 5.287 5.287v29.608a5.293 5.293 0 0 1-5.287 5.287h-24.94L10.263 50.447a1.057 1.057 0 0 1-.747.309zM5.287 2.115a3.176 3.176 0 0 0-3.172 3.172v29.608a3.176 3.176 0 0 0 3.172 3.172h4.23a1.058 1.058 0 0 1 1.057 1.057v8.022l8.768-8.768a1.058 1.058 0 0 1 .749-.311h25.378a3.176 3.176 0 0 0 3.172-3.172V5.287a3.176 3.176 0 0 0-3.172-3.172z" style="fill:#222"/>
        <path id="Path_57" data-name="Path 57" class="cls-2" d="M19.131 28.378H14.9a2.217 2.217 0 0 1-2.115-2.5v-2.787a3.742 3.742 0 0 0-1.43-3.033A9.46 9.46 0 0 1 7.5 12.271 9.563 9.563 0 0 1 16.877 3a9.762 9.762 0 0 1 6.844 2.745 9.369 9.369 0 0 1 2.813 6.715 9.479 9.479 0 0 1-3.819 7.573 3.809 3.809 0 0 0-1.468 3.073v3.157a2.117 2.117 0 0 1-2.116 2.115zM17.014 5.115h-.108a7.526 7.526 0 0 0-7.29 7.2 7.339 7.339 0 0 0 2.995 6.042 5.862 5.862 0 0 1 2.29 4.735v2.792a.771.771 0 0 0 .076.419l4.154-.038v-3.159a5.941 5.941 0 0 1 2.32-4.771 7.3 7.3 0 0 0 .782-11.084 7.371 7.371 0 0 0-5.219-2.136z" transform="translate(8.361 3.344)"/>
        <path id="Path_58" data-name="Path 58" class="cls-2" d="M17.4 14.115h-6.343a1.057 1.057 0 0 1 0-2.115H17.4a1.057 1.057 0 1 1 0 2.115z" transform="translate(11.148 13.378)"/>
    </g>
    <path id="Rectangle_193" data-name="Rectangle 193" style="fill:none" d="M0 0h60v60H0z"/>
</svg>
