<svg xmlns="http://www.w3.org/2000/svg" width="136.356" height="53.693" viewBox="0 0 136.356 53.693">
    <defs>
        <style>
            .cls-1{fill:#fff}
        </style>
    </defs>
    <g id="ML-logo" transform="translate(-2482 -409)">
        <g id="Group_4" data-name="Group 4" transform="translate(2482 409)">
            <g id="Group_3" data-name="Group 3" transform="translate(0 3.58)">
                <path id="Path_34" data-name="Path 34" class="cls-1" d="M464.03 146.954h-6.96v-13.563l-4.017 7H448.6l-4.017-7v13.563h-6.96v-28.319h6.841l6.364 12.489 6.363-12.489h6.841z" transform="translate(-437.621 -118.397)"/>
                <path id="Path_33" data-name="Path 33" class="cls-1" d="M450.028 178.5h-12.407v-18.637h4.579v14.553h7.826z" transform="translate(-437.621 -128.387)"/>
                <path id="Path_35" data-name="Path 35" class="cls-1" d="M500.877 137.01a9.467 9.467 0 0 1-3.1 7.358 11.017 11.017 0 0 1-7.676 2.824 10.851 10.851 0 0 1-7.637-2.824 9.573 9.573 0 0 1-3.063-7.358v-18.375h6.961v18.216c0 2.506 1.312 4.136 3.738 4.136s3.818-1.631 3.818-4.136v-18.216h6.961z" transform="translate(-447.744 -118.397)"/>
                <path id="Path_36" data-name="Path 36" class="cls-1" d="M534.941 137.889c-.955 5.846-4.853 9.227-10.739 9.227a10.705 10.705 0 0 1-7.875-3.182 9.258 9.258 0 0 1-2.545-5.13 41.519 41.519 0 0 1-.318-6.085 41.51 41.51 0 0 1 .318-6.086 9.256 9.256 0 0 1 2.545-5.13 10.7 10.7 0 0 1 7.875-3.182c5.886 0 9.784 3.38 10.739 9.227h-7.08c-.557-2.029-1.75-3.023-3.62-3.023a3.209 3.209 0 0 0-2.744 1.193c-.716.915-1.074 3.261-1.074 7s.358 6.085 1.074 7a3.211 3.211 0 0 0 2.744 1.193c1.87 0 3.063-.995 3.62-3.022z" transform="translate(-455.998 -118.321)"/>
                <path id="Path_37" data-name="Path 37" class="cls-1" d="M553.593 149.676h-6.96v-19.808h6.96z" transform="translate(-464.036 -121.119)"/>
                <path id="Path_38" data-name="Path 38" class="cls-1" d="M580.381 146.954h-19.21v-5.41l10.858-16.7h-10.381v-6.2h18.733v5.409l-10.9 16.7h10.9z" transform="translate(-467.558 -118.397)"/>
                <path id="Path_39" data-name="Path 39" class="cls-1" d="M611.126 146.954h-19.251v-28.319h19.251v6.2h-12.29v4.733h10.5v6.2h-10.5v4.971h12.29z" transform="translate(-474.998 -118.397)"/>
                <path id="Path_40" data-name="Path 40" class="cls-1" d="M470.186 178.5h-12.669v-18.637h12.669v4.083H462.1v3.115h6.911v4.083H462.1v3.272h8.089z" transform="translate(-442.442 -128.387)"/>
                <path id="Path_41" data-name="Path 41" class="cls-1" d="M489.71 178.5h-12.643v-3.56l7.146-10.993h-6.832v-4.083h12.329v3.56l-7.172 10.993h7.172z" transform="translate(-447.179 -128.387)"/>
                <path id="Path_42" data-name="Path 42" class="cls-1" d="M508.466 178.5h-12.643v-3.56l7.146-10.993h-6.832v-4.083h12.329v3.56l-7.172 10.993h7.172z" transform="translate(-451.724 -128.387)"/>
                <path id="Path_43" data-name="Path 43" class="cls-1" d="M528.7 178.5h-12.67v-18.637h12.67v4.083h-8.088v3.115h6.91v4.083h-6.91v3.272h8.088z" transform="translate(-456.62 -128.387)"/>
                <path id="Path_44" data-name="Path 44" class="cls-1" d="M549.322 163.946h-4.581V178.5h-4.58v-14.554h-4.581v-4.083h13.742z" transform="translate(-461.357 -128.387)"/>
                <path id="Path_45" data-name="Path 45" class="cls-1" d="M569.644 178.5h-12.407v-18.637h4.581v14.553h7.826z" transform="translate(-466.605 -128.387)"/>
                <path id="Path_46" data-name="Path 46" class="cls-1" d="M589.8 178.5h-12.666v-18.637H589.8v4.083h-8.088v3.115h6.91v4.083h-6.91v3.272h8.088z" transform="translate(-471.426 -128.387)"/>
                <path id="Path_47" data-name="Path 47" class="cls-1" d="M612.871 178.5h-5.314l-3.3-6.937h-1.545v6.937h-4.58v-18.637h7.381a6.477 6.477 0 0 1 4.529 1.649 5.524 5.524 0 0 1 1.832 4.345 5.115 5.115 0 0 1-3.037 4.869zm-7.565-14.527h-2.591v3.769h2.591a1.887 1.887 0 1 0 0-3.769z" transform="translate(-476.515 -128.387)"/>
            </g>
            <path id="Path_48" data-name="Path 48" d="M543.71 117.472s5.3-.4 8.742-3.876l2.492 6.922a12.111 12.111 0 0 1-9.019 3.56l-2.215-6.606z" transform="translate(-463.327 -113.596)" style="fill:red;fill-rule:evenodd"/>
        </g>
    </g>
</svg>
