<svg id="tarifler-ikon" xmlns="http://www.w3.org/2000/svg" width="60" height="60" viewBox="0 0 60 60">
    <defs>
        <style>
            .cls-1{fill:#222}.cls-2{fill:#d93131}
        </style>
    </defs>
    <g id="Group_260" data-name="Group 260" transform="translate(4 4)">
        <path id="Path_102" data-name="Path 102" class="cls-1" d="M331.233 388.673h-3.257v-.8a3.669 3.669 0 1 0-7.338 0v.8H316.6v-.8a3.669 3.669 0 1 0-7.339 0v.8h-4.041v-.8a3.669 3.669 0 1 0-7.338 0v.8h-3.257a1.029 1.029 0 0 0-1.015 1.015v45.532a1.015 1.015 0 0 0 1.015 1.015h13.725a1 1 0 0 0 .973-1.057 1.014 1.014 0 0 0-.973-.973h-12.71V390.7h7.529v.8a1.616 1.616 0 0 1-1.628 1.629 1.056 1.056 0 0 0-.973 1.036v.042a1.029 1.029 0 0 0 .973.973 3.682 3.682 0 0 0 3.68-3.68v-.8h9.326v.8a1.616 1.616 0 0 1-1.628 1.629 1.027 1.027 0 0 0-.085 2.051h.085a3.678 3.678 0 0 0 3.659-3.68v-.8h9.369v.8a1.634 1.634 0 0 1-1.65 1.629 1.027 1.027 0 0 0-.085 2.051h.085a3.7 3.7 0 0 0 3.68-3.68v-.8h2.223v15.311l2.051-2.051v-14.271a1.029 1.029 0 0 0-1.018-1.016zm-28.064-.8v.8h-3.257v-.8a1.63 1.63 0 0 1 3.257-.127.135.135 0 0 1 0 .124zm11.4.8h-3.279v-.8a1.64 1.64 0 0 1 3.278 0zm11.378 0h-3.257v-.8a1.629 1.629 0 0 1 3.257 0zm18.674 33.055h-25a1.015 1.015 0 0 0-1.015 1.015 13.547 13.547 0 0 0 6.387 11.462h-7.487a1.017 1.017 0 0 0-1.057.973.986.986 0 0 0 .952 1.057.1.1 0 0 0 .106 0h14.613a13.507 13.507 0 0 0 13.514-13.492 1 1 0 0 0-1.014-1.015zm-12.5 12.477a11.474 11.474 0 0 1-11.42-10.447h22.861a11.509 11.509 0 0 1-11.441 10.447zm.127-21.825-2.03-2.03v4.483a5.065 5.065 0 0 1 2.03.888z" transform="translate(-293.61 -384.19)"/>
        <path id="Path_103" data-name="Path 103" class="cls-2" d="M316.7 405.606h-3.743a2.464 2.464 0 1 0-2.474-2.474 2.46 2.46 0 0 0 2.474 2.474h-3.764a4.49 4.49 0 0 1 4.483-6.894 5.065 5.065 0 0 1 2.03.888 4.483 4.483 0 0 1 .994 6.006z" transform="translate(-277.065 -368.068)"/>
        <path id="Path_104" data-name="Path 104" class="cls-2" d="m319.821 397.456-4-4a1.008 1.008 0 0 0-1.438 0l-4 4a1.008 1.008 0 0 0 0 1.438l1.459 1.459 2.03 2.03.508.508a1.008 1.008 0 0 0 1.438 0l4-4a1.009 1.009 0 0 0 .003-1.435zm-4.716 3.278-2.559-2.559 2.559-2.559 2.538 2.559z" transform="translate(-275.24 -374.193)"/>
        <path id="Path_105" data-name="Path 105" class="cls-2" d="M313.907 404.49a5.537 5.537 0 0 0 7.825-7.825 1.016 1.016 0 0 0-1.438 0l-6.393 6.393a1.02 1.02 0 0 0 .006 1.432zm7-5.568a3.5 3.5 0 0 1-4.744 4.743z" transform="translate(-271.313 -370.615)"/>
        <path id="Path_106" data-name="Path 106" class="cls-2" d="M308.761 393.429a1.016 1.016 0 0 0-1.017 1.017v.4a3.581 3.581 0 0 0-2.506 4.094l1.011 5.41a2.557 2.557 0 0 0 5.027 0l1.009-5.41a3.582 3.582 0 0 0-2.5-4.094v-.4a1.018 1.018 0 0 0-1.019-1.017zm1.193 3.864a1.553 1.553 0 0 1 .332 1.269l-1.011 5.41a.525.525 0 0 1-1.03 0l-1.011-5.41a1.55 1.55 0 0 1 2.718-1.269z" transform="translate(-280.716 -373.89)"/>
        <path id="Path_107" data-name="Path 107" class="cls-1" d="M298.424 392.167a1.011 1.011 0 1 0 .3.719 1.015 1.015 0 0 0-.3-.719z" transform="translate(-290.176 -375.629)"/>
        <path id="Path_108" data-name="Path 108" class="cls-1" d="M309.059 391.869h-8.986a1.017 1.017 0 0 0 0 2.032h8.986a1.017 1.017 0 0 0 0-2.032z" transform="translate(-287.488 -375.629)"/>
        <path id="Path_109" data-name="Path 109" class="cls-1" d="M298.424 395.6a1.011 1.011 0 1 0 .3.719 1.034 1.034 0 0 0-.3-.719z" transform="translate(-290.176 -371.801)"/>
        <path id="Path_110" data-name="Path 110" class="cls-1" d="M309.059 395.3h-8.986a1.017 1.017 0 0 0 0 2.032h8.986a1.017 1.017 0 0 0 0-2.032z" transform="translate(-287.488 -371.801)"/>
        <path id="Path_111" data-name="Path 111" class="cls-1" d="M298.424 399.035a1.015 1.015 0 1 0 0 1.436 1.024 1.024 0 0 0 .3-.717 1.034 1.034 0 0 0-.3-.719z" transform="translate(-290.176 -367.972)"/>
        <path id="Path_112" data-name="Path 112" class="cls-1" d="M309.059 398.737h-8.986a1.017 1.017 0 0 0 0 2.032h8.986a1.017 1.017 0 0 0 0-2.032z" transform="translate(-287.488 -367.973)"/>
        <path id="Path_113" data-name="Path 113" class="cls-1" d="M297.708 402.17a1.015 1.015 0 1 0 .719.3 1.018 1.018 0 0 0-.719-.3z" transform="translate(-290.177 -364.145)"/>
        <path id="Path_114" data-name="Path 114" class="cls-1" d="M309.108 402.171h-8.986a1.017 1.017 0 1 0-.093 2.032h9.079a1.017 1.017 0 1 0 .091-2.032.646.646 0 0 0-.091 0z" transform="translate(-287.537 -364.146)"/>
        <path id="Path_115" data-name="Path 115" class="cls-1" d="M303.283 407.842a1.015 1.015 0 1 0 .719.3 1.018 1.018 0 0 0-.719-.3z" transform="translate(-283.962 -357.822)"/>
    </g>
    <path id="Rectangle_192" data-name="Rectangle 192" style="fill:none" d="M0 0h60v60H0z"/>
</svg>
