<svg xmlns="http://www.w3.org/2000/svg" width="105" height="36" viewBox="0 0 105 36">
    <g fill="none" fill-rule="evenodd">
        <g fill="#FFF" fill-rule="nonzero">
            <g>
                <g>
                    <g>
                        <path d="M0 10.826V5.452C0 1.703 2-.003 5.35-.003c3.35 0 5.348 1.706 5.348 5.455v5.371c0 3.73-2 5.455-5.348 5.455C1.983 16.281 0 14.552 0 10.826zm8.63-.043V5.518c0-2.493-1.15-3.6-3.28-3.6-2.154 0-3.284 1.107-3.284 3.6v5.265c0 2.493 1.13 3.6 3.284 3.6 2.13.002 3.28-1.107 3.28-3.599v-.001zM13.539.149L15.733.149 21.721 11.869 21.764 11.869 21.764.149 23.747.149 23.747 16.131 21.747 16.131 15.61 4.031 15.558 4.031 15.558 16.131 13.534 16.131zM27.121.149L29.187.149 29.187 14.236 35.409 14.236 35.729 16.136 27.12 16.136zM38.207.149L40.254.149 40.254 16.131 38.207 16.131zM43.776.149L45.97.149 51.96 11.869 52.003 11.869 52.003.149 53.976.149 53.976 16.131 51.976 16.131 45.839 4.031 45.796 4.031 45.796 16.131 43.776 16.131zM57.354.149L65.964.149 65.644 2.089 59.422 2.089 59.422 6.689 64.022 6.689 64.022 8.649 59.422 8.649 59.422 14.234 65.644 14.234 65.964 16.134 57.354 16.134z" transform="translate(-499 -1697) translate(120 1675) translate(379 22)"/>
                    </g>
                    <g>
                        <path d="M0 11.016V0h2.111v10.972c0 2.528.922 3.694 3.143 3.694 2.221 0 3.166-1.166 3.166-3.694V0h2.111v11.016c0 3.847-1.8 5.629-5.277 5.629C1.777 16.645 0 14.859 0 11.016zM12.729 14.6L19.629 2 12.989 2 12.989 0 22.003 0 22.003 1.935 15.121 14.535 22.289 14.535 22.289 16.491 12.724 16.491zM24.776 0L27.569 0 31.702 13.193 31.746 13.193 35.858 0 38.651 0 38.651 16.491 36.519 16.491 36.519 4.354 36.475 4.354 32.715 16.491 30.689 16.491 26.889 4.354 26.845 4.354 26.845 16.491 24.779 16.491zM45.443 0h2.4l4.574 16.491h-2.155l-1.187-4.266h-4.95l-1.166 4.266h-2.088L45.443 0zm3.143 10.29l-1.979-7.278h-.021l-2 7.278h4zM54.634 0L56.898 0 63.078 12.093 63.121 12.093 63.121 0 65.166 0 65.166 16.491 63.1 16.491 56.767 4.002 56.723 4.002 56.723 16.491 54.635 16.491z" transform="translate(-499 -1697) translate(120 1675) translate(379 22) translate(.323 19.355)"/>
                    </g>
                    <g>
                        <path d="M18.035 5.348v-3.2c.047-.411-.246-.784-.657-.835h-3.323v.444c-.007.357-.3.643-.657.64H5.935c-.357.003-.65-.283-.657-.64v-.444H1.954c-.408.057-.697.425-.657.835v31.2c-.033.404.255.763.657.817h15.423c.196-.02.376-.118.5-.271.123-.154.18-.35.157-.546v-2.239c.007-.357.3-.643.657-.64.357-.003.65.283.657.64v2.239c.038 1.131-.841 2.082-1.972 2.132H1.954c-1.128-.05-2.002-1.004-1.955-2.132v-31.2c-.026-.544.165-1.077.532-1.48s.879-.644 1.423-.67h15.423c1.137.052 2.018 1.013 1.972 2.15v3.2c-.006.36-.297.651-.657.657-.36-.006-.651-.297-.657-.657z" transform="translate(-499 -1697) translate(120 1675) translate(379 22) translate(70.246 .258)"/>
                    </g>
                    <g>
                        <g>
                            <path d="M2.61 11.306c-.108 0-.215-.027-.311-.078-.211-.115-.343-.336-.343-.576V8.875h-1.3c-.173 0-.339-.068-.461-.19-.123-.123-.191-.289-.191-.462V.652c0-.173.068-.339.19-.461C.318.068.484 0 .657 0h10.6c.173 0 .34.068.462.19.123.123.192.289.192.462v7.571c0 .173-.07.34-.192.461-.123.123-.289.191-.462.191H6.51l-3.541 2.324c-.107.07-.231.107-.359.107zm-1.3-3.737h1.3c.173 0 .34.07.461.192.123.123.191.289.191.462v1.221l2.694-1.766c.106-.07.231-.108.359-.108h4.287V1.307h-9.3l.008 6.262z" transform="translate(-499 -1697) translate(120 1675) translate(379 22) translate(92.737 .448)"/>
                        </g>
                        <g>
                            <g>
                                <path d="M6.45 1.308H.65c-.173 0-.34-.068-.462-.19C.065.994-.004.828-.004.655c0-.361.293-.654.654-.654h5.8c.361 0 .654.293.654.654 0 .173-.07.34-.192.461-.123.123-.289.191-.462.191z" transform="translate(-499 -1697) translate(120 1675) translate(379 22) translate(92.737 .448) translate(2.402 2.651)"/>
                            </g>
                            <g>
                                <path d="M4.478 1.306H.654C.293 1.306 0 1.013 0 .652 0 .479.07.312.192.191.315.068.481 0 .654 0h3.824c.173 0 .339.068.461.19.123.123.191.289.191.462 0 .173-.068.34-.19.462-.123.123-.289.192-.462.192z" transform="translate(-499 -1697) translate(120 1675) translate(379 22) translate(92.737 .448) translate(2.402 2.651) translate(0 2.267)"/>
                            </g>
                        </g>
                    </g>
                    <g>
                        <g>
                            <path d="M5.389 10.782C2.414 10.776.005 8.366 0 5.391.005 2.416 2.414.006 5.389 0c2.976.004 5.388 2.415 5.393 5.391-.005 2.976-2.417 5.387-5.393 5.391zm0-9.36c-2.191.002-3.967 1.779-3.968 3.97.002 2.19 1.777 3.967 3.968 3.969C7.58 9.359 9.357 7.583 9.36 5.392 9.358 3.2 7.581 1.423 5.389 1.421v.001z" transform="translate(-499 -1697) translate(120 1675) translate(379 22) translate(76.77 6.37) translate(2.81)"/>
                        </g>
                        <g>
                            <path d="M13.047 13.417H3.354c-.954 0-1.863-.407-2.5-1.118-.635-.712-.938-1.66-.833-2.608l.545-4.9C.747 3.117 1.478 1.55 2.645.335c.13-.137.31-.216.498-.22.189-.004.372.067.508.197.284.272.294.722.023 1.006-.954.988-1.552 2.265-1.7 3.63l-.545 4.9c-.063.546.111 1.092.48 1.5.366.411.89.646 1.441.643h9.693c.55.003 1.076-.231 1.441-.643.368-.408.543-.954.482-1.5l-.546-4.9c-.158-1.411-.79-2.727-1.793-3.733-.277-.278-.277-.728 0-1.006.133-.133.314-.208.503-.208s.37.075.503.208c1.23 1.235 2.005 2.85 2.2 4.581l.544 4.9c.105.948-.198 1.896-.833 2.608-.636.71-1.544 1.117-2.497 1.119z" transform="translate(-499 -1697) translate(120 1675) translate(379 22) translate(76.77 6.37) translate(0 9.844)"/>
                        </g>
                    </g>
                </g>
            </g>
        </g>
    </g>
</svg>
