<svg xmlns="http://www.w3.org/2000/svg" xmlns:xlink="http://www.w3.org/1999/xlink" width="150" height="50" viewBox="0 0 150 50">
    <defs>
        <path id="prefix__a" d="M0 0.452L88.715 0.452 88.715 7.688 0 7.688z"/>
    </defs>
    <g fill="none" fill-rule="evenodd">
        <g transform="translate(0 13) translate(0 15.438)">
            <mask id="prefix__b" fill="#fff">
                <use xlink:href="#prefix__a"/>
            </mask>
            <path fill="#EB008B" d="M88.715.452l-.337 2.31h-3.293l.337-2.308 3.293-.002zm-6.448 0l-.343 2.31h-3.277l.34-2.31h3.28zm-6.408 0l-.335 2.31h-3.292l.34-2.307L75.86.452zm-10.806 0c.09.203.222.368.41.459.57.278 1.495.231 1.88-.108.124-.108.243-.216.355-.348l3.446-.003c-.249.577-.598 1.13-1.071 1.508-.987.786-2.051 1.187-4.626 1.187-2.576 0-3.578-1.542-3.732-2.544l-.021-.148 3.359-.003zm-4.836 0l-.338 2.31h-3.292l.337-2.308 3.293-.002zm-6.448 0l-.343 2.31H50.15l.339-2.31h3.28zm-6.408 0l-.335 2.31h-3.292l.34-2.307 3.287-.003zm-8.215 0c.31.458.517.767.517.767l.11-.767h3.104l-.338 2.317h-1.82l1.611 2.398-3.176 2.522L35.005.454l4.141-.002zm-7.173 0l-2.75 3.397-1.095-2.676.525-.72h3.32zm-11.203 0c.282.223.678.377 1.22.413.743.05 1.458-.183 1.964-.41L27.58.451l-.1.675-.833.648c-1.033.755-2.451 1.172-4.163 1.325-1.712.155-3.917-.292-4.75-2.174-.068-.154-.128-.313-.178-.473h3.214zm-4.287 0l-.337 2.31h-3.293L13.19.453l3.293-.002zm-6.448 0l-.343 2.31H6.415l.34-2.31h3.28zm-6.408 0l-.334 2.31H0L.34.454 3.628.452z" mask="url(#prefix__b)"/>
        </g>
        <path fill="#EB008B" d="M32.909 2.655C33.188 1.326 34.183.25 35.132.25c.948 0 1.49 1.076 1.212 2.405-.279 1.329-1.274 2.406-2.223 2.406-.948 0-1.491-1.077-1.212-2.406zm39.664 13.236l.985-6.667c.108-.724.694-2.05 1.611-2.783.918-.733 2.09-1.241 3.51-1.241 1.417 0 2.25.347 2.729.609.478.262.786.594.786.594s.393-.386 1.164-.702c.771-.316 1.303-.509 2.553-.509 1.249 0 2.413.401 2.922.902.509.501.678.802.871 1.673 0 0 .1.632-.03 1.542-.086.59-.604 4.147-.96 6.58l-3.292.002c.345-2.358.835-5.718.874-6.01.062-.456.193-1.404-.123-1.82-.317-.417-.887-.525-1.319-.494-.432.03-1.326.162-1.565 1.588-.153.914-.67 4.368-1.022 6.733l-3.28.003c.36-2.453.881-6.015.917-6.296.054-.432.13-1.45-.448-1.82-.578-.37-1.619-.286-2.042.3-.425.587-.517.872-.663 1.767-.094.567-.562 3.78-.892 6.051l-3.286-.002zm-4.875 0c.242-.28.45-.672.586-1.408.2-1.08 1.342-8.898 1.342-8.898h3.223s-1.095 7.618-1.218 8.543c-.065.482-.217 1.136-.487 1.763h-3.446zm-6.004 0c-.123-.947-.015-1.875.19-3.166.216-1.357 1.072-7.124 1.072-7.124h3.27s-1.211 8.265-1.303 8.882c-.063.415-.055.99.13 1.407h-3.36zm-17.62 0l.986-6.667c.108-.724.694-2.05 1.612-2.783.917-.733 2.09-1.241 3.508-1.241 1.419 0 2.252.347 2.73.609.478.262.786.594.786.594s.394-.386 1.164-.702c.771-.316 1.303-.509 2.552-.509 1.25 0 2.414.401 2.922.902.51.501.68.802.872 1.673 0 0 .1.632-.03 1.542-.086.59-.604 4.147-.96 6.58l-3.292.002c.345-2.358.834-5.718.874-6.01.061-.456.192-1.404-.123-1.82-.316-.417-.887-.525-1.32-.494-.43.03-1.325.162-1.564 1.588-.154.914-.67 4.368-1.022 6.733l-3.28.003c.36-2.453.882-6.015.917-6.296.054-.432.131-1.45-.447-1.82-.579-.37-1.62-.286-2.044.3-.423.587-.516.872-.663 1.767-.093.567-.561 3.78-.891 6.051l-3.287-.002zm-4.3 0l1.493-10.306h3.115l-1.505 10.306h-3.103zm-11.12 0c1.051-1.445 3.324-4.565 3.383-4.654.077-.115.1-.4-.008-.601-.107-.201-2.436-4.18-2.552-4.403-.115-.224-.262-.663-.054-1.542.208-.88.756-1.141 1.002-1.18.247-.039.486.054.772.494.285.439 2.621 3.94 2.721 4.094.1.154.263.2.394.015.13-.185 4.88-6.731 5.112-7.047.231-.316.817-.949 1.38-1.034.563-.084.987-.015 1.38.278.393.293.732.902.663 1.535-.07.632-.416 1.18-.971 1.881-.556.702-5.56 6.793-5.69 6.94-.132.146-.14.377-.109.57.031.193.347.61.463.779l2.606 3.874h-4.14l-1.08-1.877c-.077-.131-.193-.316-.447.008-.098.123-.744.925-1.506 1.866l-3.32.004zm-11.098 0c-.561-1.792.029-3.894 2.152-4.97 2.313-1.172 5.798-1.11 5.798-1.11s.263-1.05-.308-1.558c-.636-.567-1.295-.385-2.73-.154-1.434.231-3.037.917-3.037.917l.37-2.613s.971-.695 3.408-1.065c2.436-.37 3.3.093 4.379.895 1.08.802 1.08 2.19.957 3.069-.1.702-.72 4.92-.965 6.586l-3.626.003c.44-.197.72-.39.72-.39l.54-3.547s-.725.046-1.25.093c-.524.046-1.326.123-2.36.509-1.032.385-1.434 1.187-1.434 2.02 0 .47.161.974.6 1.317l-3.214-.002zm-17.215 0l.985-6.667c.108-.724.694-2.05 1.611-2.783.918-.733 2.09-1.241 3.509-1.241s2.251.347 2.73.609c.478.262.786.594.786.594s.393-.386 1.164-.702c.771-.316 1.303-.509 2.552-.509 1.25 0 2.414.401 2.923.902.509.501.678.802.87 1.673 0 0 .101.632-.03 1.542l-.958 6.58-3.293.002c.344-2.358.834-5.718.874-6.01.062-.456.193-1.404-.123-1.82-.317-.417-.887-.525-1.319-.494-.432.03-1.326.162-1.565 1.588-.153.914-.67 4.368-1.022 6.733l-3.28.003c.36-2.453.882-6.015.917-6.296.054-.432.13-1.45-.448-1.82-.578-.37-1.619-.286-2.043.3-.424.587-.516.872-.663 1.767-.093.567-.561 3.78-.891 6.051L.34 15.891z" transform="translate(0 13)"/>
    </g>
</svg>
