<svg xmlns="http://www.w3.org/2000/svg" width="150" height="50" viewBox="0 0 150 50">
    <g fill="none" fill-rule="evenodd">
        <path fill="#FEC10E" d="M18.603 0L26.057 10.771 33.512 0z" transform="translate(0 14)"/>
        <path fill="#231F20" d="M9.165 5.752L0 22.258h4.528l1.609-3.303h7.88l1.677 3.303h4.5L10.95 5.752H9.165zm.892 4.979l2.757 5.31H7.3l2.758-5.31z" transform="translate(0 14)"/>
        <path fill="#231F20" d="M30.259 22.258L26.004 16.874 22.39 22.258 17.816 22.258 23.97 13.803 18.133 5.72 22.561 5.72 26.057 10.771 29.554 5.72 33.955 5.72 27.999 13.803 34.926 22.258z" transform="translate(0 14)"/>
        <g fill="#231F20">
            <path d="M16.006 9.862H4.2c.07 1.356.54 2.398 1.41 3.124.823.7 1.927 1.05 3.31 1.05 1.755 0 3.093-.46 4.015-1.382l1.49 2.952c-1.357 1.099-3.382 1.647-6.077 1.647-2.58 0-4.596-.757-6.05-2.272C.871 13.49.158 11.453.158 8.865c0-2.455.753-4.511 2.26-6.169C3.97.968 5.955.104 8.374.104c2.323 0 4.22.682 5.691 2.047 1.507 1.41 2.26 3.266 2.26 5.57 0 .47-.106 1.184-.319 2.141M4.333 6.963h8.124c-.266-2.419-1.605-3.629-4.016-3.629-2.207 0-3.577 1.21-4.108 3.63M17.062 15.885l1.37-3.071c1.161.912 2.464 1.369 3.909 1.369 1.507 0 2.26-.536 2.26-1.609 0-.744-.39-1.382-1.17-1.914-.355-.248-1.072-.598-2.154-1.05-2.854-1.18-4.281-2.832-4.281-4.96 0-1.524.616-2.69 1.848-3.496 1.055-.7 2.38-1.05 3.975-1.05 1.72 0 3.338.385 4.854 1.156l-1.117 3.005c-.842-.727-2.017-1.09-3.524-1.09-1.347 0-2.02.536-2.02 1.608 0 .568.47 1.104 1.409 1.609.292.169.992.47 2.1.904 2.73 1.073 4.095 2.748 4.095 5.026 0 1.675-.664 2.951-1.994 3.829-1.134.735-2.588 1.102-4.36 1.102-1.091 0-1.991-.097-2.7-.292-.647-.176-1.48-.535-2.5-1.076M29.34 15.885l1.37-3.071c1.16.912 2.464 1.369 3.908 1.369 1.507 0 2.26-.536 2.26-1.609 0-.744-.39-1.382-1.17-1.914-.354-.248-1.072-.598-2.153-1.05-2.855-1.18-4.282-2.832-4.282-4.96 0-1.524.616-2.69 1.848-3.496 1.056-.7 2.38-1.05 3.976-1.05 1.72 0 3.337.385 4.853 1.156l-1.117 3.005c-.842-.727-2.016-1.09-3.523-1.09-1.347 0-2.021.536-2.021 1.608 0 .568.47 1.104 1.41 1.609.292.169.992.47 2.1.904 2.73 1.073 4.095 2.748 4.095 5.026 0 1.675-.665 2.951-1.994 3.829-1.135.735-2.588 1.102-4.361 1.102-1.09 0-1.99-.097-2.7-.292-.647-.176-1.48-.535-2.5-1.076" transform="translate(0 14) translate(33.979 5.31)"/>
        </g>
    </g>
</svg>
