<svg xmlns="http://www.w3.org/2000/svg" width="29" height="23" viewBox="0 0 29 23">
    <g fill="none">
        <path fill="#504246" d="M5.21 21.506v-1.417c0-.543-.333-.897-.904-.897-.286 0-.595.095-.809.402-.166-.26-.404-.402-.761-.402-.238 0-.476.071-.666.33v-.282h-.5v2.266h.5v-1.251c0-.402.214-.59.547-.59.333 0 .5.212.5.59v1.25h.499v-1.25c0-.402.238-.59.547-.59.333 0 .5.212.5.59v1.25h.547zm7.398-2.266H11.8v-.685h-.5v.685h-.452v.448h.452v1.039c0 .52.214.826.785.826.214 0 .452-.07.619-.165l-.143-.425c-.143.094-.31.118-.428.118-.238 0-.333-.142-.333-.378v-1.015h.808v-.448zm4.235-.048c-.286 0-.476.142-.595.33v-.282h-.5v2.266h.5V20.23c0-.378.167-.59.476-.59.095 0 .214.023.31.047l.142-.472c-.095-.024-.238-.024-.333-.024zm-6.4.236c-.237-.165-.57-.236-.927-.236-.571 0-.952.284-.952.732 0 .378.286.59.785.661l.238.024c.262.047.405.118.405.236 0 .165-.19.283-.524.283-.333 0-.595-.118-.761-.236l-.238.378c.262.189.619.283.975.283.666 0 1.047-.307 1.047-.732 0-.401-.31-.614-.785-.684l-.238-.024c-.214-.024-.38-.07-.38-.212 0-.166.166-.26.428-.26.285 0 .57.118.713.189l.215-.402zm13.275-.236c-.285 0-.476.142-.595.33v-.282h-.5v2.266h.5V20.23c0-.378.167-.59.476-.59.095 0 .214.023.31.047l.142-.472c-.095-.024-.238-.024-.333-.024zm-6.376 1.18c0 .685.476 1.181 1.214 1.181.333 0 .57-.07.809-.26l-.238-.401c-.19.142-.381.212-.595.212-.404 0-.69-.283-.69-.731 0-.425.286-.709.69-.732.214 0 .404.07.595.212l.238-.401c-.238-.189-.476-.26-.81-.26-.737 0-1.213.496-1.213 1.18zm4.616 0V19.24h-.5v.283c-.167-.213-.404-.33-.714-.33-.642 0-1.142.495-1.142 1.18 0 .684.5 1.18 1.142 1.18.333 0 .571-.118.714-.33v.283h.5v-1.133zm-1.832 0c0-.4.262-.731.69-.731.404 0 .69.307.69.732 0 .401-.286.731-.69.731-.428-.023-.69-.33-.69-.731zm-5.971-1.18c-.666 0-1.142.472-1.142 1.18 0 .709.476 1.181 1.165 1.181.334 0 .667-.094.928-.307l-.238-.354c-.19.142-.428.236-.666.236-.309 0-.618-.142-.69-.543h1.69v-.189c.023-.732-.405-1.204-1.047-1.204zm0 .425c.309 0 .523.19.57.543h-1.189c.048-.307.262-.543.619-.543zm12.394.756v-2.03h-.5v1.18c-.166-.213-.404-.33-.713-.33-.643 0-1.142.495-1.142 1.18 0 .684.5 1.18 1.142 1.18.333 0 .57-.118.713-.33v.283h.5v-1.133zm-1.832 0c0-.402.262-.732.69-.732.404 0 .69.307.69.732 0 .401-.286.731-.69.731-.428-.023-.69-.33-.69-.731zm-16.7 0V19.24h-.5v.283c-.166-.213-.404-.33-.713-.33-.643 0-1.142.495-1.142 1.18 0 .684.5 1.18 1.142 1.18.333 0 .57-.118.713-.33v.283h.5v-1.133zm-1.856 0c0-.402.262-.732.69-.732.405 0 .69.307.69.732 0 .401-.285.731-.69.731-.428-.023-.69-.33-.69-.731z" transform="translate(.42 .098)"/>
        <path fill="#FF5F00" d="M10.277 2.03L17.771 2.03 17.771 15.392 10.277 15.392z" transform="translate(.42 .098)"/>
        <path fill="#EB001B" d="M10.753 8.71c0-2.714 1.284-5.122 3.259-6.68C12.56.897 10.729.212 8.73.212 3.997.212.167 4.013.167 8.711s3.83 8.498 8.564 8.498c1.998 0 3.83-.684 5.28-1.817-1.974-1.535-3.258-3.966-3.258-6.681z" transform="translate(.42 .098)"/>
        <path fill="#F79E1B" d="M27.881 8.71c0 4.699-3.83 8.5-8.564 8.5-1.998 0-3.83-.685-5.281-1.818 1.998-1.558 3.259-3.966 3.259-6.681s-1.285-5.123-3.26-6.68C15.488.896 17.32.211 19.318.211c4.734 0 8.564 3.825 8.564 8.499z" transform="translate(.42 .098)"/>
    </g>
</svg>
