<svg xmlns="http://www.w3.org/2000/svg" xmlns:xlink="http://www.w3.org/1999/xlink" width="32" height="32" viewBox="0 0 32 32">
    <defs>
        <path id="yrn7zz2fya" d="M0 0L27.996 0 27.996 24.001 0 24.001z"/>
    </defs>
    <g fill="none" fill-rule="evenodd" transform="translate(2 4)">
        <mask id="ejm760sh9b" fill="#fff">
            <use xlink:href="#yrn7zz2fya"/>
        </mask>
        <path fill="#FFFFFF" d="M25.171 13.437c-.601.51-1.513.99-2.635 1.393-.572.205-1.19.388-1.844.547-.365-1.092-.827-2.228-1.372-3.376.545-1.149 1.007-2.285 1.372-3.377.655.16 1.272.343 1.844.547 1.122.403 2.034.884 2.635 1.393.131.111.247.223.348.335-.3.271-.49.664-.49 1.102 0 .437.19.83.49 1.102-.1.112-.217.223-.348.334m-4.702 4.972c.214 1.173.252 2.203.112 2.978-.131.725-.407 1.214-.82 1.453-.2.115-.44.174-.71.174-.515 0-1.136-.204-1.843-.605-.733-.416-1.523-1.024-2.348-1.81-.228-.216-.457-.446-.686-.686.429-.485.856-1.004 1.278-1.555.326-.426.646-.866.959-1.32 1.268-.102 2.482-.27 3.61-.5.19.647.34 1.273.448 1.87M12.146 20.6l-.264.246c-.25-.192-.563-.306-.902-.306-.82 0-1.484.665-1.484 1.484 0 .176.03.345.087.502-.619.324-1.166.488-1.629.488-.27 0-.508-.059-.709-.174-.413-.239-.689-.728-.82-1.453-.14-.775-.102-1.805.112-2.978.108-.598.258-1.224.447-1.87 1.129.23 2.343.397 3.611.5.313.453.633.893.96 1.319.421.55.848 1.07 1.277 1.555-.229.24-.458.47-.686.687M4.47 14.83c-1.122-.402-2.034-.884-2.635-1.393-.562-.476-.848-.96-.848-1.436 0-.477.286-.96.848-1.437.601-.509 1.513-.99 2.635-1.393.572-.204 1.19-.387 1.844-.547.365 1.092.827 2.228 1.372 3.377-.545 1.148-1.007 2.284-1.372 3.376-.654-.16-1.272-.342-1.844-.547m2.085-9.139c.462-.25.776-.74.776-1.304 0-.635-.398-1.177-.959-1.388.013-.135.03-.263.053-.385.131-.725.407-1.214.82-1.452.2-.116.44-.175.71-.175.515 0 1.136.204 1.843.606.733.415 1.523 1.024 2.348 1.809.228.217.457.446.686.686-.429.485-.856 1.005-1.278 1.556-.326.425-.646.866-.959 1.32-1.268.101-2.482.27-3.61.5-.18-.612-.323-1.205-.43-1.773m11.41 3.734c-.276-.48-.562-.948-.854-1.406.91.095 1.785.226 2.612.39-.27.799-.595 1.622-.967 2.458-.25-.481-.514-.963-.791-1.442m-6.102-2.54c.535-.737 1.085-1.43 1.64-2.062.555.633 1.105 1.325 1.64 2.062-.54-.024-1.087-.036-1.64-.036-.553 0-1.1.012-1.64.036M8.25 10.867c-.372-.836-.696-1.659-.967-2.457.827-.165 1.702-.296 2.612-.391-.292.458-.577.927-.854 1.406-.277.48-.54.96-.79 1.442m1.644 5.116c-.91-.095-1.785-.226-2.612-.391.27-.799.595-1.622.967-2.457.25.48.514.962.791 1.442.277.479.562.948.854 1.406m5.249 1.134c-.536.737-1.086 1.429-1.641 2.062-.555-.633-1.105-1.325-1.64-2.062.54.024 1.087.036 1.64.036.553 0 1.1-.012 1.64-.036m3.613-3.982c.372.835.696 1.658.967 2.457-.827.165-1.702.296-2.612.39.292-.457.578-.926.854-1.405.277-.48.54-.961.79-1.442m-1.645.948c-.398.69-.817 1.36-1.249 2.006-.77.05-1.558.076-2.358.076s-1.589-.025-2.358-.076c-.432-.645-.85-1.316-1.249-2.006-.4-.693-.772-1.39-1.113-2.082.34-.693.713-1.39 1.113-2.083.398-.69.817-1.36 1.249-2.005.77-.051 1.558-.077 2.358-.077s1.589.026 2.358.077c.432.645.85 1.316 1.249 2.005.4.694.772 1.39 1.113 2.083-.34.692-.713 1.389-1.113 2.082M14.86 3.402c.825-.785 1.615-1.394 2.348-1.81.707-.4 1.328-.605 1.844-.605.27 0 .508.06.709.175.413.238.689.727.82 1.452.14.775.102 1.806-.112 2.979-.108.597-.258 1.223-.447 1.87-1.129-.23-2.343-.398-3.611-.5-.313-.453-.633-.894-.96-1.32-.421-.55-.848-1.07-1.277-1.555.229-.24.458-.47.686-.686m11.652 7.115h-.031c-.18-.243-.404-.48-.672-.706-.7-.593-1.69-1.121-2.94-1.57-.586-.209-1.216-.396-1.882-.56.19-.66.343-1.3.454-1.912.237-1.307.275-2.427.112-3.33-.088-.486-.235-.908-.438-1.255-.222-.38-.511-.676-.86-.877C19.902.103 19.497 0 19.052 0c-.689 0-1.473.247-2.332.734-.802.455-1.657 1.112-2.54 1.952-.226.215-.451.44-.677.674-.226-.234-.451-.46-.677-.674-.883-.84-1.738-1.497-2.54-1.952C9.427.247 8.643 0 7.954 0c-.445 0-.85.103-1.203.307-.349.201-.638.496-.86.877-.203.347-.35.77-.438 1.254-.03.172-.055.352-.071.54-.591.195-1.018.752-1.018 1.409 0 .728.524 1.333 1.215 1.46.11.588.258 1.201.44 1.833-.666.165-1.296.352-1.881.562-1.251.448-2.24.976-2.941 1.569-.376.318-.668.657-.868 1.006C.111 11.199 0 11.597 0 12c0 .403.11.801.33 1.184.199.349.49.687.867 1.006.7.593 1.69 1.12 2.94 1.569.586.21 1.216.397 1.882.561-.19.66-.343 1.3-.454 1.911-.237 1.307-.275 2.428-.112 3.331.088.485.235.907.438 1.255.222.38.511.675.86.877.353.203.758.306 1.203.306.673 0 1.437-.235 2.271-.7.221.131.48.207.755.207.82 0 1.483-.665 1.483-1.484 0-.116-.013-.23-.038-.338.133-.12.267-.243.401-.37.226-.215.451-.44.677-.675.226.235.451.46.677.674.883.84 1.738 1.497 2.54 1.953.859.487 1.643.733 2.332.733.445 0 .85-.103 1.203-.306.349-.202.638-.497.86-.877.203-.348.35-.77.438-1.255.163-.903.125-2.024-.112-3.331-.111-.612-.264-1.251-.454-1.91.666-.165 1.296-.353 1.881-.562 1.251-.448 2.24-.976 2.941-1.57.268-.226.492-.462.672-.706h.031c.82 0 1.484-.664 1.484-1.483 0-.82-.664-1.484-1.484-1.484" mask="url(#ejm760sh9b)"/>
    </g>
</svg>
