<svg id="berabercozelim" xmlns="http://www.w3.org/2000/svg" width="32" height="32" viewBox="0 0 32 32">
    <defs>
        <style>
            .cls-1{fill:#2d2d2d}
        </style>
    </defs>
    <g id="Group_33" data-name="Group 33" transform="translate(-6652.055 -1154.849)">
        <g id="Group_14" data-name="Group 14" transform="translate(6655.791 1158.585)">
            <g id="Group_11" data-name="Group 11" transform="translate(10.16)">
                <g id="Group_10" data-name="Group 10">
                    <path id="Path_2" data-name="Path 2" class="cls-1" d="m6685.718 1173.639-3.332 3.332v-1.356l2.655-2.661a.482.482 0 0 1 .677 0 .491.491 0 0 1 0 .685z" transform="translate(-6675.536 -1163.714)"/>
                    <path id="Path_3" data-name="Path 3" class="cls-1" d="m6682.038 1159.4-1.7 1.708a.49.49 0 0 1-.255.134 4.841 4.841 0 0 0-2.616 1.388l-.07.064c0 .006-.007.013-.013.019l-.02.013-2.9 2.9-.678.672-.274.281h-.008a1.269 1.269 0 0 0-.537.115 1.291 1.291 0 0 0-.7.665 1.058 1.058 0 0 0-.115.3 1.418 1.418 0 0 0-.467-.083h-.007a1.451 1.451 0 0 1 .173-.633 1.55 1.55 0 0 1 .231-.3l.416-.416.607-.6.677-.678 2.924-2.91.019-.019.077-.07a5.725 5.725 0 0 1 2.961-1.625l1.6-1.6a.483.483 0 0 1 .678 0 .471.471 0 0 1-.003.675z" transform="translate(-6671.675 -1158.585)"/>
                    <path id="Path_4" data-name="Path 4" class="cls-1" d="m6690.557 1165.432-1.137 1.171a4.331 4.331 0 0 1-.358 4.406 6.556 6.556 0 0 1-.48.678 14.828 14.828 0 0 0-.953 1.375 1.968 1.968 0 0 1-1.421.947c-.082.006-.159.013-.236.013a1.786 1.786 0 0 1-1.247-.505.482.482 0 0 1-.013-.678.476.476 0 0 1 .677-.006.839.839 0 0 0 .691.224.987.987 0 0 0 .723-.486 16.377 16.377 0 0 1 1.018-1.458c.178-.243.332-.447.4-.563a3.384 3.384 0 0 0 .218-3.748.487.487 0 0 1 .032-.531l.3-.4c.013-.019.032-.032.044-.051l1.068-1.062a.479.479 0 1 1 .677.678z" transform="translate(-6676.327 -1160.759)"/>
                </g>
            </g>
            <g id="Group_13" data-name="Group 13">
                <g id="Group_12" data-name="Group 12">
                    <path id="Path_5" data-name="Path 5" class="cls-1" d="M6666.85 1176.869v1.362l-4.592-4.592a.49.49 0 0 1 0-.685.482.482 0 0 1 .677 0z" transform="translate(-6658.071 -1163.714)"/>
                    <path id="Path_6" data-name="Path 6" class="cls-1" d="m6670.909 1165.626-.677.672-.678-.672-2.9-2.9-.02-.013c-.006-.006-.013-.013-.013-.019l-.07-.064a4.788 4.788 0 0 0-2.559-1.381.631.631 0 0 1-.313-.141l-1.7-1.708a.471.471 0 0 1 0-.678.483.483 0 0 1 .678 0l1.6 1.6a5.858 5.858 0 0 1 2.961 1.625l.077.07.019.019 2.923 2.91z" transform="translate(-6657.968 -1158.585)"/>
                    <path id="Path_7" data-name="Path 7" class="cls-1" d="M6661.774 1172.839a.479.479 0 0 1-.012.678 1.776 1.776 0 0 1-1.242.505 2.78 2.78 0 0 1-.242-.013 1.961 1.961 0 0 1-1.42-.947 14.907 14.907 0 0 0-.955-1.375 6.577 6.577 0 0 1-.479-.678 4.338 4.338 0 0 1-.358-4.406l-.1-.128-1.037-1.043a.471.471 0 0 1 0-.678.482.482 0 0 1 .677 0l1.062 1.062c.013.019.032.032.045.051l.3.4a.489.489 0 0 1 .032.531 3.4 3.4 0 0 0 .217 3.748 6.345 6.345 0 0 0 .4.563c.275.371.659.876 1.01 1.458a.992.992 0 0 0 .724.486.827.827 0 0 0 .689-.224.484.484 0 0 1 .689.01z" transform="translate(-6655.791 -1160.759)"/>
                </g>
            </g>
        </g>
        <g id="Group_17" data-name="Group 17" transform="translate(6662.032 1166.579)">
            <g id="Group_15" data-name="Group 15" transform="translate(2.537)">
                <path id="Path_8" data-name="Path 8" class="cls-1" d="M6677.747 1174.971v1.375l-.012 5.149v.128a5.809 5.809 0 0 1-.953 3.249v2.258a.48.48 0 0 1-.96 0v-2.411a.479.479 0 0 1 .09-.275 4.87 4.87 0 0 0 .862-2.833v-.141l.008-4.157.006-1.362v-.979a.457.457 0 0 0-.045-.192.429.429 0 0 0-.812.192v3.595a.48.48 0 0 1-.96 0v-4.6a.426.426 0 0 0-.427-.422.484.484 0 0 0-.135.019.425.425 0 0 0-.295.4v1.138l-.006.652v2.808a.48.48 0 0 1-.96 0v-6.1a.42.42 0 0 0-.223-.377.425.425 0 0 0-.628.377v.083h-.013a.425.425 0 0 1-.129-.019l.142.141-.007 1.2v4.688a.479.479 0 1 1-.959 0v-1.413a.077.077 0 0 0 .007-.051.3.3 0 0 0 0-.1.117.117 0 0 0-.007-.051v-3.48a.429.429 0 0 0-.855-.045v7.144a.484.484 0 0 1-.48.48.479.479 0 0 1-.48-.48v-7.1a1.388 1.388 0 0 1 .236-.774 1.414 1.414 0 0 1 .788-.563 1.3 1.3 0 0 1 .357-.051h.006a1.4 1.4 0 0 1 .467.083 1.11 1.11 0 0 1 .116-.3 1.29 1.29 0 0 1 .7-.665 1.269 1.269 0 0 1 .537-.115h.008a1.341 1.341 0 0 1 .83.281h.007l.045.045.2.2a1.4 1.4 0 0 1 .282.672c0 .013.006.019.006.032a1.155 1.155 0 0 1 .007.154v.185a1.406 1.406 0 0 1 .436-.07 1.155 1.155 0 0 1 .4.064.2.2 0 0 1 .063.013 1.455 1.455 0 0 1 .716.563 1.367 1.367 0 0 1 .18.441 1.239 1.239 0 0 1 .46-.083c.07 0 .141.006.211.013a1.439 1.439 0 0 1 .863.492 1.377 1.377 0 0 1 .31.895z" transform="translate(-6669.516 -1171.083)"/>
                <path id="Path_9" data-name="Path 9" class="cls-1" d="M6673.786 1173.372v.122l-.14-.141a.419.419 0 0 0 .127.019z" transform="translate(-6671.005 -1171.901)"/>
                <path id="Path_10" data-name="Path 10" class="cls-1" d="m6676.1 1171.772-.2-.2-.045-.045c.019.013.032.026.051.038a2.045 2.045 0 0 1 .194.207z" transform="translate(-6671.798 -1171.241)"/>
            </g>
            <g id="Group_16" data-name="Group 16" transform="translate(0 6.213)">
                <path id="Path_11" data-name="Path 11" class="cls-1" d="M6669.415 1191.118a.479.479 0 0 1-.479-.48v-1.471l-.023-.162a4.325 4.325 0 0 1-2.861-3.367 6.379 6.379 0 0 1-.145-.817 14.9 14.9 0 0 0-.3-1.648 1.978 1.978 0 0 1 .339-1.673 1.786 1.786 0 0 1 1.4-.7.49.49 0 0 1 .486.473.479.479 0 0 1-.473.486.818.818 0 0 0-.649.329 1.009 1.009 0 0 0-.168.854 16.152 16.152 0 0 1 .318 1.75 6.449 6.449 0 0 0 .114.677 3.4 3.4 0 0 0 2.5 2.8.478.478 0 0 1 .35.4l.072.5v1.567a.48.48 0 0 1-.481.482z" transform="translate(-6665.549 -1180.798)"/>
            </g>
        </g>
    </g>
    <path id="Rectangle_20" data-name="Rectangle 20" style="fill:none" d="M0 0h32v32H0z"/>
</svg>
