<svg id="serviskaydi" xmlns="http://www.w3.org/2000/svg" width="32" height="32" viewBox="0 0 32 32">
    <defs>
        <style>
            .cls-1{fill:#0180c9;stroke:#000;stroke-width:.5px}
        </style>
    </defs>
    <g id="Group_12" data-name="Group 12" transform="translate(-9251.406 -995.833)">
        <g id="Group_12-2" data-name="Group 12" transform="translate(9255.406 999.833)">
            <path id="Path_1" data-name="Path 1" class="cls-1" d="M9277.912 1008.985c-.684-.077-1.367-.166-2.05-.243a.28.28 0 0 1-.269-.2 10.204 10.204 0 0 0-.294-.722.319.319 0 0 1 .039-.39c.421-.524.836-1.054 1.251-1.584a1.018 1.018 0 0 0-.082-1.514c-.7-.7-1.394-1.4-2.1-2.095a1.011 1.011 0 0 0-1.52-.089c-.53.422-1.061.83-1.584 1.252a.3.3 0 0 1-.371.045c-.242-.115-.491-.211-.74-.307a.282.282 0 0 1-.2-.249c-.069-.645-.172-1.29-.223-1.941a1.127 1.127 0 0 0-.837-1.111h-3.576a1.077 1.077 0 0 0-.824 1c-.07.677-.16 1.348-.236 2.025a.3.3 0 0 1-.224.281 6.7 6.7 0 0 0-.7.294.328.328 0 0 1-.408-.051c-.543-.441-1.093-.869-1.642-1.3a.993.993 0 0 0-1.386.083c-.153.153-1.31 1.3-1.706 1.712-.038.045-.082.083-.12.121l-.007.006-.326.326a1.013 1.013 0 0 0-.083 1.495c.416.536.837 1.073 1.258 1.6a.307.307 0 0 1 .045.377c-.108.23-.211.473-.3.715a.306.306 0 0 1-.281.224c-.556.057-1.1.141-1.66.185-.594.051-1.137.172-1.36.824v3.679a.953.953 0 0 0 .229.485 1.23 1.23 0 0 0 .8.358c.639.07 1.271.153 1.909.224a.371.371 0 0 1 .339.262 4.553 4.553 0 0 0 .236.575.4.4 0 0 1-.07.479q-.612.757-1.207 1.533a1.158 1.158 0 0 0-.275.8 1.356 1.356 0 0 0 .461.849c.613.62 1.232 1.239 1.852 1.852.7.709 1.162.734 1.948.1.446-.364.9-.709 1.348-1.067a.349.349 0 0 1 .4-.064c.211.1.422.185.633.262a.358.358 0 0 1 .242.332c.071.664.16 1.322.23 1.98a1.028 1.028 0 0 0 .837.964h3.666a1.119 1.119 0 0 0 .778-.971c.07-.69.16-1.367.236-2.057a.293.293 0 0 1 .217-.281 5.781 5.781 0 0 0 .716-.3.319.319 0 0 1 .39.051c.518.415 1.041.824 1.565 1.239a1.012 1.012 0 0 0 1.525-.083c.69-.69 1.38-1.386 2.076-2.076a1.025 1.025 0 0 0 .089-1.545c-.415-.53-.824-1.06-1.245-1.59a.289.289 0 0 1-.051-.351c.114-.243.217-.485.313-.734a.3.3 0 0 1 .287-.217c.684-.077 1.36-.16 2.044-.243a1 1 0 0 0 .971-1.092v-3.034a1.012 1.012 0 0 0-.973-1.088zm.294 4.094c0 .332-.076.415-.409.453-.715.083-1.424.172-2.139.262a.807.807 0 0 0-.671.549c-.108.262-.2.53-.326.779a.918.918 0 0 0 .134 1.067c.416.517.824 1.047 1.233 1.571.236.3.229.377-.032.639-.683.69-1.373 1.379-2.057 2.069-.262.255-.345.262-.645.026-.524-.415-1.047-.818-1.565-1.239a.9.9 0 0 0-1.06-.128 7.227 7.227 0 0 1-.7.287.932.932 0 0 0-.658.824c-.076.69-.159 1.373-.242 2.057-.032.294-.121.383-.421.383h-2.983c-.332 0-.408-.083-.446-.415-.083-.715-.173-1.431-.262-2.139a.808.808 0 0 0-.53-.664c-.274-.115-.556-.224-.824-.351a.893.893 0 0 0-1 .128c-.542.434-1.092.862-1.641 1.29-.25.192-.352.185-.569-.032-.708-.7-1.411-1.411-2.113-2.114-.23-.236-.236-.332-.032-.588.429-.549.856-1.1 1.29-1.648a.883.883 0 0 0 .122-.984 10.807 10.807 0 0 1-.307-.741.931.931 0 0 0-.831-.651c-.677-.077-1.354-.16-2.024-.236-.319-.038-.4-.121-.4-.434v-2.963c0-.351.07-.428.415-.466.709-.083 1.411-.172 2.114-.262a.828.828 0 0 0 .7-.562c.1-.249.191-.5.307-.734a.967.967 0 0 0-.141-1.13c-.422-.511-.824-1.041-1.232-1.565-.211-.268-.205-.358.038-.607.108-.109.211-.211.313-.319a.646.646 0 0 0 .071-.064.141.141 0 0 1 .044-.045c.39-.383 1.52-1.526 1.654-1.654.243-.249.332-.249.606-.038.55.434 1.105.869 1.654 1.3a.848.848 0 0 0 .926.115c.256-.115.518-.224.779-.326a.91.91 0 0 0 .639-.811c.083-.677.166-1.354.243-2.031.038-.345.114-.415.466-.415h2.912c.371 0 .44.07.479.428.083.7.172 1.411.261 2.12a.819.819 0 0 0 .544.677c.262.109.53.2.778.326a.918.918 0 0 0 1.066-.128c.53-.434 1.08-.856 1.616-1.277.236-.185.345-.179.556.032q1.053 1.054 2.107 2.114c.243.243.249.332.032.607-.428.549-.855 1.1-1.284 1.641a.876.876 0 0 0-.121.964c.108.249.224.492.313.741a.907.907 0 0 0 .823.658c.671.083 1.348.166 2.024.243.333.038.409.115.409.447z" transform="translate(-9255.406 -999.833)"/>
            <path id="Path_2" data-name="Path 2" d="M9273.715 1011.743a.613.613 0 0 0-1 .536c.006.588 0 1.162.006 1.75a.279.279 0 0 1-.089.243q-.365.335-.709.69c-.077.077-.128.07-.2-.013-.2-.211-.408-.415-.619-.613a.4.4 0 0 1-.135-.319c.006-.588.006-1.182 0-1.769a.6.6 0 0 0-.945-.536 3.457 3.457 0 0 0 .153 5.946.246.246 0 0 1 .147.249c-.013.281-.006 2.005 0 2.606v.562a5.433 5.433 0 0 0 .728.16.19.19 0 0 1-.044-.16 4.446 4.446 0 0 0 0-.4v-.038c.006-.358.006-2.248 0-2.459-.007-.147.025-.185.172-.153a2.981 2.981 0 0 0 1.322.006c.146-.032.18-.006.18.141-.008.971-.008 1.929 0 2.9a.238.238 0 0 1-.045.16 5.452 5.452 0 0 0 .727-.16v-.236c0-.952.007-1.9 0-2.848a.352.352 0 0 1 .2-.358 3.453 3.453 0 0 0 .151-5.887zm.824 3.519a2.755 2.755 0 0 1-5.352.1 2.709 2.709 0 0 1 1.1-2.97c0 .556.013 1.092-.007 1.635a.927.927 0 0 0 .332.786c.256.236.5.5.748.747a.594.594 0 0 0 .912.013c.307-.287.607-.581.914-.875a.693.693 0 0 0 .217-.53v-1.768a2.7 2.7 0 0 1 1.136 2.862zm-2.344 5.831v-1.68c-.007-.249-.121-.383-.326-.4-.224-.013-.357.128-.364.4-.007.562 0 1.118 0 1.68 0 .064.026.16-.032.185.129.006.25.013.377.013s.249-.006.377-.013c-.057-.026-.027-.122-.027-.185z" transform="translate(-9260.105 -1004.085)" style="fill:#0180c9"/>
        </g>
        <path id="Path_3" data-name="Path 3" class="cls-1" d="M9276.348 1013.6a6.761 6.761 0 0 0-.146-.581 4.989 4.989 0 0 0-.211-.588 7.097 7.097 0 0 0-.269-.562.449.449 0 0 0-.045-.077c-.051-.1-.108-.192-.166-.287-.006-.013-.019-.026-.025-.038-.063-.1-.128-.185-.191-.275a6.294 6.294 0 0 0-1.194-1.239s0-.006-.006-.006c-.09-.07-.18-.134-.275-.2-.186-.121-.37-.236-.562-.345a6.144 6.144 0 0 0-2.932-.741c-.108 0-.211 0-.319.006s-.2.013-.294.026a5.59 5.59 0 0 0-.8.134c-.1.019-.185.045-.274.07a5.951 5.951 0 0 0-.7.249.462.462 0 0 0-.127.057 2.217 2.217 0 0 0-.218.1 5.674 5.674 0 0 0-.926.568c-.007 0-.013 0-.013.006a6.3 6.3 0 0 0-1.725 1.993.023.023 0 0 0-.007.019 6.252 6.252 0 0 0-.428.99c-.025.089-.051.172-.076.262a6.033 6.033 0 0 0-.186 2.357c.013.1.025.2.039.294a6.186 6.186 0 0 0 4.815 5.02 6.119 6.119 0 0 0 1.238.128h.013a4.535 4.535 0 0 0 .5-.026 4.9 4.9 0 0 0 .511-.064 6.094 6.094 0 0 0 1.6-.5.069.069 0 0 0 .032-.013 6.208 6.208 0 0 0 3.449-5.02 4.588 4.588 0 0 0 .025-.517 6.193 6.193 0 0 0-.107-1.2zm-.594 1.475c0 .077-.007.153-.013.23a.461.461 0 0 0-.013.1 1.264 1.264 0 0 1-.032.224 1.829 1.829 0 0 1-.045.268 5.624 5.624 0 0 1-.152.568 1.305 1.305 0 0 1-.071.2 1.51 1.51 0 0 1-.1.243 1.323 1.323 0 0 1-.108.243 1.215 1.215 0 0 1-.121.236c-.083.153-.173.3-.269.447a3.373 3.373 0 0 1-.312.422 5.265 5.265 0 0 1-1.719 1.392 4.1 4.1 0 0 1-.849.332.681.681 0 0 1-.109.032 5.452 5.452 0 0 1-.728.16c-.07.083-.217.019-.319.045a.121.121 0 0 1-.1 0c-.128.006-.249.013-.377.013s-.249-.006-.377-.013a.138.138 0 0 1-.1 0c-.1-.026-.256.038-.313-.045a5.452 5.452 0 0 1-.728-.16v.006a2.883 2.883 0 0 1-.243-.07 4.056 4.056 0 0 1-.594-.255 3.255 3.255 0 0 1-.46-.249 1.5 1.5 0 0 1-.217-.134c-.007-.006-.007-.013-.013-.013a2.72 2.72 0 0 1-.415-.307 5.307 5.307 0 0 1-1.865-3.1 3.252 3.252 0 0 1-.077-.5 5.957 5.957 0 0 1-.025-.326 5.552 5.552 0 0 1 .052-1.124 1.732 1.732 0 0 1 .051-.249 5.439 5.439 0 0 1 10.381-.9l.02.055a5.052 5.052 0 0 1 .252.85 3.161 3.161 0 0 1 .083.543 4.534 4.534 0 0 1 .025.832z" transform="translate(-3.174 -3.187)"/>
    </g>
    <path id="Rectangle_24" data-name="Rectangle 24" style="fill:none" d="M0 0h32v32H0z"/>
</svg>
