<svg xmlns="http://www.w3.org/2000/svg" xmlns:xlink="http://www.w3.org/1999/xlink" width="32" height="32" viewBox="0 0 32 32">
    <defs>
        <path id="xtaha5fa6a" d="M0.095 0.299L23.035 0.299 23.035 23.239 0.095 23.239z"/>
        <path id="3iy2sk59ac" d="M0.196 0.299L19.044 0.299 19.044 19.148 0.196 19.148z"/>
    </defs>
    <g fill="none" fill-rule="evenodd">
        <path fill="#FFFFFF" d="M21.427 23.247H2.09c-.255 0-.46-.206-.46-.46V3.45c0-.255.205-.46.46-.46.254 0 .46.205.46.46v18.875h18.876c.254 0 .46.206.46.46 0 .255-.206.461-.46.461" transform="translate(3 3)"/>
        <g transform="translate(3 3) translate(1.535 .008)">
            <mask id="r8h2xtk4bb" fill="#fff">
                <use xlink:href="#xtaha5fa6a"/>
            </mask>
            <path fill="#FFFFFF" d="M22.575 23.24c-.255 0-.46-.207-.46-.461V1.219H.554c-.254 0-.46-.205-.46-.46C.095.505.301.3.555.3h22.02c.254 0 .46.206.46.46v22.02c0 .254-.206.46-.46.46" mask="url(#r8h2xtk4bb)"/>
        </g>
        <path fill="#FFFFFF" d="M3.721 5.542c-.118 0-.236-.045-.326-.135L2.091 4.102.786 5.407c-.18.18-.471.18-.651 0-.18-.18-.18-.472 0-.652l1.63-1.63c.173-.172.479-.172.651 0l1.63 1.63c.18.18.18.472 0 .652-.09.09-.207.135-.325.135M19.796 24.878c-.117 0-.235-.045-.325-.135-.18-.18-.18-.472 0-.651l1.305-1.305-1.305-1.305c-.18-.18-.18-.47 0-.65.18-.18.471-.18.651 0l1.63 1.63c.087.086.135.203.135.325s-.048.24-.134.325l-1.63 1.631c-.09.09-.209.135-.327.135" transform="translate(3 3)"/>
        <g transform="translate(3 3) translate(5.527 .008)">
            <mask id="u9ckcekgbd" fill="#fff">
                <use xlink:href="#3iy2sk59ac"/>
            </mask>
            <path fill="#FFFFFF" d="M.656 4.862c-.118 0-.236-.045-.326-.135-.18-.18-.18-.472 0-.652L3.972.434c.18-.18.472-.18.651 0 .18.18.18.47 0 .65L.982 4.728c-.09.09-.208.135-.326.135m0 4.761C.538 9.623.42 9.58.33 9.49c-.18-.18-.18-.472 0-.652L8.734.434c.18-.18.471-.18.651 0 .18.18.18.47 0 .65L.982 9.49c-.09.09-.208.134-.326.134m0 4.762c-.118 0-.236-.044-.326-.134-.18-.18-.18-.472 0-.652L13.496.434c.18-.18.471-.18.651 0 .18.18.18.47 0 .65L.982 14.252c-.09.09-.208.134-.326.134m0 4.763c-.118 0-.236-.046-.326-.136-.18-.18-.18-.47 0-.65L18.258.433c.18-.18.471-.18.651 0 .18.18.18.47 0 .65L.982 19.013c-.09.09-.208.136-.326.136m4.762 0c-.118 0-.236-.046-.326-.136-.18-.18-.18-.47 0-.65L18.258 5.194c.18-.18.471-.18.651 0 .18.18.18.472 0 .652L5.744 19.012c-.09.09-.208.136-.326.136m4.762 0c-.118 0-.236-.046-.326-.136-.18-.18-.18-.47 0-.65l8.404-8.405c.18-.18.471-.18.651 0 .18.18.18.472 0 .652l-8.403 8.403c-.09.09-.208.136-.326.136m4.762 0c-.118 0-.236-.046-.326-.136-.18-.18-.18-.47 0-.65l3.642-3.643c.18-.18.471-.18.651 0 .18.18.18.472 0 .652l-3.642 3.641c-.09.09-.207.136-.325.136" mask="url(#u9ckcekgbd)"/>
        </g>
    </g>
</svg>
