<svg xmlns="http://www.w3.org/2000/svg" width="72" height="63" viewBox="0 0 72 63">
    <g fill="none" fill-rule="evenodd">
        <g fill="#000" fill-rule="nonzero">
            <g>
                <g>
                    <path d="M6.605.302C2.975.302 0 3.25 0 6.848v32.727c0 3.598 2.974 6.546 6.605 6.546h5.598l-1.496 14.548c-.062.68.308 1.326.928 1.622.62.295 1.36.18 1.858-.293l16.073-15.877h7.585v2.505c0 2.67 2.233 4.858 4.928 4.858h12.41l8.745 8.514c.513.503 1.295.618 1.933.285.638-.334.984-1.039.854-1.742l-1.264-7.057h1.315c2.695 0 4.928-2.188 4.928-4.858V32.98c0-2.67-2.233-4.858-4.928-4.858h-4.979V6.848c0-3.598-2.974-6.546-6.605-6.546H6.605zm0 3.273h47.883c1.858 0 3.303 1.431 3.303 3.273v32.727c0 1.842-1.445 3.273-3.303 3.273H28.895c-.433-.003-.85.162-1.16.46L14.447 56.425l1.238-11.787c.044-.46-.11-.917-.425-1.258-.315-.34-.76-.534-1.226-.532h-7.43c-1.858 0-3.303-1.431-3.303-3.273V6.848c0-1.842 1.445-3.273 3.303-3.273zm54.488 27.818h4.98c.93 0 1.625.692 1.625 1.586v15.647c0 .894-.695 1.585-1.626 1.585h-3.276c-.488 0-.95.215-1.263.584-.314.37-.446.858-.363 1.334l.697 3.963-5.547-5.42c-.311-.299-.728-.464-1.16-.46H42.078c-.931 0-1.626-.692-1.626-1.586v-2.505h14.035c3.63 0 6.605-2.948 6.605-6.546v-8.182z" transform="translate(-239 -46) translate(239 46) translate(.282)"/>
                </g>
            </g>
        </g>
    </g>
</svg>
