<svg xmlns="http://www.w3.org/2000/svg" xmlns:xlink="http://www.w3.org/1999/xlink" width="150" height="50" viewBox="0 0 150 50">
    <defs>
        <path id="prefix__a" d="M0 20.908L69.9 20.908 69.9 0 0 0z"/>
    </defs>
    <g fill="none" fill-rule="evenodd" transform="translate(0 15)">
        <path fill="#EC1D24" d="M19.856 19.967c-2.49 0-3.98-1.997-4.562-3.853-.834-2.653-.903-3.108-1.764-5.907-.686-2.228-2.375-3.288-3.979-3.236-1.486.048-2.367 1.406-2.367 2.226 0 .666.396 1.993 2.06 1.993 1.663 0 2.668-1.44 2.405-2.47.421.39 1.32 2.04 1.399 3.374.188 3.156-2.218 5.66-5.478 5.66-3.927 0-7.57-3.214-7.57-8.59C0 4.92 2.891.26 9.365.01c5.678-.219 9.16 3.412 10.49 6.113C21.186 3.421 24.669-.21 30.346.01c6.476.25 9.366 4.91 9.366 9.156 0 5.375-3.642 8.59-7.57 8.59-3.26 0-5.665-2.505-5.477-5.661.079-1.333.977-2.985 1.399-3.374-.264 1.03.741 2.47 2.405 2.47 1.663 0 2.06-1.327 2.06-1.993 0-.82-.882-2.178-2.368-2.226-1.603-.052-3.293 1.008-3.979 3.236-.86 2.8-.93 3.254-1.763 5.907-.583 1.856-2.072 3.853-4.562 3.853zm0-10.78h-1.76C16.81 5.244 13.402 2.321 9.19 2.65c-3.438.269-6.467 2.47-6.467 6.528 0 3.62 2.436 5.791 4.95 5.791 1.544 0 2.75-.876 2.998-2.279-.674.828-1.775.864-2.605.864-1.206 0-3.646-1.044-3.646-4.369 0-2.69 2.442-4.607 4.735-4.855 3.12-.34 5.89 1.666 6.959 4.827 1.11 3.283 1.406 4.726 2.064 6.65.26.764.886 1.269 1.678 1.269.792 0 1.417-.505 1.678-1.269.658-1.924.954-3.367 2.064-6.65 1.068-3.16 3.838-5.167 6.958-4.827 2.294.248 4.736 2.165 4.736 4.855 0 3.325-2.44 4.369-3.646 4.369-.83 0-1.932-.036-2.605-.864.248 1.403 1.454 2.279 2.997 2.279 2.515 0 4.95-2.172 4.95-5.791 0-4.059-3.028-6.26-6.466-6.528-4.213-.329-7.62 2.594-8.907 6.535h-1.76z"/>
        <path fill="#FFF" d="M42.484.633L45.837.633 45.837 6.41 48.431.633 51.793.633 48.694 7.41 52.31 17.438 48.948 17.438 46.565 10.865 45.837 12.186 45.845 17.438 42.484 17.438zM55.656 7.759c0-.246.025-.991.792-.991s.783.751.783.99v6.697c0 .43-.193 1.015-.793 1.015-.593 0-.782-.561-.782-1.015V7.759zm-3.23.4c0-2.308 1.012-3.623 3.896-3.623h.261c2.819 0 3.886 1.315 3.886 3.663v5.77c0 2.416-1.152 3.683-3.886 3.683h-.261c-2.78 0-3.895-1.267-3.895-3.72V8.159zM69.9 12.18c0 .652-.003 1.083-.003 1.793 0 2.416-1.152 3.682-3.887 3.682h-.26c-2.781 0-3.897-1.266-3.897-3.72V8.162c0-2.309 1.012-3.623 3.896-3.623h.261c2.818 0 3.887 1.314 3.887 3.663l.003 1.253-3.225-.003.012-1.698c0-.24-.045-.983-.812-.983s-.763.737-.763.983v6.699c0 .454.159 1.02.752 1.02.6 0 .823-.59.823-1.02l-.012-2.276 3.225.003z"/>
        <mask id="prefix__b" fill="#fff">
            <use xlink:href="#prefix__a"/>
        </mask>
        <path fill="#FFF" d="M62.481 20.908L69.157 20.908 69.157 18.535 62.481 18.535z" mask="url(#prefix__b)"/>
    </g>
</svg>
