<?xml version="1.0" encoding="utf-8"?><svg width="68" height="1203" viewBox="0 0 68 1203" xmlns="http://www.w3.org/2000/svg" xmlns:xlink="http://www.w3.org/1999/xlink"><svg width="32" height="32" viewBox="0 0 32 32" id="arrow-b" xmlns="http://www.w3.org/2000/svg"><path fill="#222" fill-rule="evenodd" d="M16 20.75l7-7.292L21.6 12 16 17.833 10.4 12 9 13.458z"/></svg><svg width="32" height="32" viewBox="0 0 32 32" id="arrow-b-w" y="32" xmlns="http://www.w3.org/2000/svg"><path fill="#FFF" fill-rule="evenodd" d="M16 20.75l7-7.292L21.6 12 16 17.833 10.4 12 9 13.458z"/></svg><svg width="32" height="32" viewBox="0 0 32 32" id="arrow2-r" y="64" xmlns="http://www.w3.org/2000/svg"><path fill="#222" d="M12.745 12.368l1.004-1.114 5.619 5.065-5.62 5.05-1.002-1.116 4.379-3.935z"/></svg><svg width="32" height="32" viewBox="0 0 32 32" id="arrow2-r-w" y="96" xmlns="http://www.w3.org/2000/svg"><path fill="#fff" d="M12.745 12.368l1.004-1.114 5.619 5.065-5.62 5.05-1.002-1.116 4.379-3.935z"/></svg><svg id="berabercozelim" width="32" height="32" viewBox="0 0 32 32" y="128" xmlns="http://www.w3.org/2000/svg"><defs><style>.aecls-1{fill:#0180c9}</style></defs><g id="aeGroup_33" data-name="Group 33" transform="translate(-6652.055 -1154.849)"><g id="aeGroup_14" data-name="Group 14" transform="translate(6655.791 1158.585)"><g id="aeGroup_11" data-name="Group 11" transform="translate(10.16)"><g id="aeGroup_10" data-name="Group 10"><path id="aePath_2" data-name="Path 2" class="aecls-1" d="M6685.718 1173.639l-3.332 3.332v-1.356l2.655-2.661a.482.482 0 01.677 0 .491.491 0 010 .685z" transform="translate(-6675.536 -1163.714)"/><path id="aePath_3" data-name="Path 3" class="aecls-1" d="M6682.038 1159.4l-1.7 1.708a.49.49 0 01-.255.134 4.841 4.841 0 00-2.616 1.388l-.07.064c0 .006-.007.013-.013.019l-.02.013-2.9 2.9-.678.672-.274.281h-.008a1.269 1.269 0 00-.537.115 1.291 1.291 0 00-.7.665 1.058 1.058 0 00-.115.3 1.418 1.418 0 00-.467-.083h-.007a1.451 1.451 0 01.173-.633 1.55 1.55 0 01.231-.3l.416-.416.607-.6.677-.678 2.924-2.91.019-.019.077-.07a5.725 5.725 0 012.961-1.625l1.6-1.6a.483.483 0 01.678 0 .471.471 0 01-.003.675z" transform="translate(-6671.675 -1158.585)"/><path id="aePath_4" data-name="Path 4" class="aecls-1" d="M6690.557 1165.432l-1.137 1.171a4.331 4.331 0 01-.358 4.406 6.556 6.556 0 01-.48.678 14.828 14.828 0 00-.953 1.375 1.968 1.968 0 01-1.421.947c-.082.006-.159.013-.236.013a1.786 1.786 0 01-1.247-.505.482.482 0 01-.013-.678.476.476 0 01.677-.006.839.839 0 00.691.224.987.987 0 00.723-.486 16.377 16.377 0 011.018-1.458c.178-.243.332-.447.4-.563a3.384 3.384 0 00.218-3.748.487.487 0 01.032-.531l.3-.4c.013-.019.032-.032.044-.051l1.068-1.062a.479.479 0 11.677.678z" transform="translate(-6676.327 -1160.759)"/></g></g><g id="aeGroup_13" data-name="Group 13"><g id="aeGroup_12" data-name="Group 12"><path id="aePath_5" data-name="Path 5" class="aecls-1" d="M6666.85 1176.869v1.362l-4.592-4.592a.49.49 0 010-.685.482.482 0 01.677 0z" transform="translate(-6658.071 -1163.714)"/><path id="aePath_6" data-name="Path 6" class="aecls-1" d="M6670.909 1165.626l-.677.672-.678-.672-2.9-2.9-.02-.013c-.006-.006-.013-.013-.013-.019l-.07-.064a4.788 4.788 0 00-2.559-1.381.631.631 0 01-.313-.141l-1.7-1.708a.471.471 0 010-.678.483.483 0 01.678 0l1.6 1.6a5.858 5.858 0 012.961 1.625l.077.07.019.019 2.923 2.91z" transform="translate(-6657.968 -1158.585)"/><path id="aePath_7" data-name="Path 7" class="aecls-1" d="M6661.774 1172.839a.479.479 0 01-.012.678 1.776 1.776 0 01-1.242.505 2.78 2.78 0 01-.242-.013 1.961 1.961 0 01-1.42-.947 14.907 14.907 0 00-.955-1.375 6.577 6.577 0 01-.479-.678 4.338 4.338 0 01-.358-4.406l-.1-.128-1.037-1.043a.471.471 0 010-.678.482.482 0 01.677 0l1.062 1.062c.013.019.032.032.045.051l.3.4a.489.489 0 01.032.531 3.4 3.4 0 00.217 3.748 6.345 6.345 0 00.4.563c.275.371.659.876 1.01 1.458a.992.992 0 00.724.486.827.827 0 00.689-.224.484.484 0 01.689.01z" transform="translate(-6655.791 -1160.759)"/></g></g></g><g id="aeGroup_17" data-name="Group 17" transform="translate(6662.032 1166.579)"><g id="aeGroup_15" data-name="Group 15" transform="translate(2.537)"><path id="aePath_8" data-name="Path 8" class="aecls-1" d="M6677.747 1174.971v1.375l-.012 5.149v.128a5.809 5.809 0 01-.953 3.249v2.258a.48.48 0 01-.96 0v-2.411a.479.479 0 01.09-.275 4.87 4.87 0 00.862-2.833v-.141l.008-4.157.006-1.362v-.979a.457.457 0 00-.045-.192.429.429 0 00-.812.192v3.595a.48.48 0 01-.96 0v-4.6a.426.426 0 00-.427-.422.484.484 0 00-.135.019.425.425 0 00-.295.4v1.138l-.006.652v2.808a.48.48 0 01-.96 0v-6.1a.42.42 0 00-.223-.377.425.425 0 00-.628.377v.083h-.013a.425.425 0 01-.129-.019l.142.141-.007 1.2v4.688a.479.479 0 11-.959 0v-1.413a.077.077 0 00.007-.051.3.3 0 000-.1.117.117 0 00-.007-.051v-3.48a.429.429 0 00-.855-.045v7.144a.484.484 0 01-.48.48.479.479 0 01-.48-.48v-7.1a1.388 1.388 0 01.236-.774 1.414 1.414 0 01.788-.563 1.3 1.3 0 01.357-.051h.006a1.4 1.4 0 01.467.083 1.11 1.11 0 01.116-.3 1.29 1.29 0 01.7-.665 1.269 1.269 0 01.537-.115h.008a1.341 1.341 0 01.83.281h.007l.045.045.2.2a1.4 1.4 0 01.282.672c0 .013.006.019.006.032a1.155 1.155 0 01.007.154v.185a1.406 1.406 0 01.436-.07 1.155 1.155 0 01.4.064.2.2 0 01.063.013 1.455 1.455 0 01.716.563 1.367 1.367 0 01.18.441 1.239 1.239 0 01.46-.083c.07 0 .141.006.211.013a1.439 1.439 0 01.863.492 1.377 1.377 0 01.31.895z" transform="translate(-6669.516 -1171.083)"/><path id="aePath_9" data-name="Path 9" class="aecls-1" d="M6673.786 1173.372v.122l-.14-.141a.419.419 0 00.127.019z" transform="translate(-6671.005 -1171.901)"/><path id="aePath_10" data-name="Path 10" class="aecls-1" d="M6676.1 1171.772l-.2-.2-.045-.045c.019.013.032.026.051.038a2.045 2.045 0 01.194.207z" transform="translate(-6671.798 -1171.241)"/></g><g id="aeGroup_16" data-name="Group 16" transform="translate(0 6.213)"><path id="aePath_11" data-name="Path 11" class="aecls-1" d="M6669.415 1191.118a.479.479 0 01-.479-.48v-1.471l-.023-.162a4.325 4.325 0 01-2.861-3.367 6.379 6.379 0 01-.145-.817 14.9 14.9 0 00-.3-1.648 1.978 1.978 0 01.339-1.673 1.786 1.786 0 011.4-.7.49.49 0 01.486.473.479.479 0 01-.473.486.818.818 0 00-.649.329 1.009 1.009 0 00-.168.854 16.152 16.152 0 01.318 1.75 6.449 6.449 0 00.114.677 3.4 3.4 0 002.5 2.8.478.478 0 01.35.4l.072.5v1.567a.48.48 0 01-.481.482z" transform="translate(-6665.549 -1180.798)"/></g></g></g><path id="aeRectangle_20" data-name="Rectangle 20" d="M0 0h32v32H0z" fill="none"/></svg><svg width="32" height="32" viewBox="0 0 32 32" id="bubble-qm" y="160" xmlns="http://www.w3.org/2000/svg"><g fill="none" fill-rule="evenodd"><circle cx="16" cy="16" r="10" fill="#989898"/><text fill="#FFF" font-family="Graphik-Medium, Graphik" font-size="10" font-weight="400"><tspan x="13.42" y="20">?</tspan></text></g></svg><svg width="32" height="32" viewBox="0 0 32 32" id="check" y="192" xmlns="http://www.w3.org/2000/svg"><rect width="19" height="19" x="6.5" y="6.5" fill="none" stroke="#979797" rx="3"/></svg><svg width="32" height="33" viewBox="0 0 32 32" id="check-full" y="224" xmlns="http://www.w3.org/2000/svg"><g fill="none" fill-rule="evenodd"><rect width="20" height="20" x="6" y="6" fill="#f55c00" rx="3"/><path fill="#FFF" fill-rule="nonzero" d="M19.222 12.939l1.064 1.058-5.879 5.912-3.468-3.412 1.052-1.069 2.404 2.365z"/></g></svg><svg width="66" height="66" viewBox="0 0 66 66" id="cocoen" y="257" xmlns="http://www.w3.org/2000/svg"><g fill="none" fill-rule="evenodd"><circle cx="33" cy="33" r="33" fill="#FFF"/><path fill="#222" d="M50.75 33l-7.292-7L42 27.4l5.833 5.6L42 38.6l1.458 1.4zM16.25 33l7.292-7L25 27.4 19.167 33 25 38.6 23.542 40z"/></g></svg><svg width="32" height="32" viewBox="0 0 32 32" id="compare" y="323" xmlns="http://www.w3.org/2000/svg"><path d="M13.422 16.661l-2.1 2.116h10.211c.218 0 .39.17.39.389a.386.386 0 01-.39.388h-10.21l2.1 2.1c.155.156.155.405 0 .545a.377.377 0 01-.28.109.368.368 0 01-.28-.11l-2.754-2.752a.376.376 0 01-.109-.28c0-.11.047-.203.109-.28l2.769-2.77a.376.376 0 01.544 0 .376.376 0 010 .545zm-3.375-4.394c0 .217.17.389.389.389h10.21l-2.115 2.115c-.155.156-.155.405 0 .545.078.077.171.108.28.108s.202-.03.28-.108l2.753-2.77a.372.372 0 00.11-.28.446.446 0 00-.11-.28l-2.768-2.768a.376.376 0 00-.545 0 .376.376 0 000 .544l2.1 2.1H10.436a.41.41 0 00-.39.405z"/></svg><svg width="32" height="32" viewBox="0 0 32 32" id="completed" y="355" xmlns="http://www.w3.org/2000/svg"><g fill="none" fill-rule="evenodd"><circle cx="16" cy="15" r="10" fill="#6E994E"/><path fill="#FFF" fill-rule="nonzero" d="M19.222 11.939l1.064 1.058-5.879 5.912-3.468-3.412 1.052-1.069 2.404 2.365z"/></g></svg><svg width="32" height="32" viewBox="0 0 32 32" id="delete" y="387" xmlns="http://www.w3.org/2000/svg"><path d="M17.207 9c.527 0 .962.436.962.962v.853h3.468a.364.364 0 010 .727h-1.09v9.73a1.17 1.17 0 01-1.161 1.162h-6.772a1.17 1.17 0 01-1.162-1.162v-9.73h-1.089a.364.364 0 010-.727h3.45v-.853c0-.526.435-.962.962-.962zm2.596 2.542H12.18v9.73c0 .236.2.436.435.436h6.754c.236 0 .435-.2.435-.436v-9.73zm-3.812 1.633c.2 0 .363.164.363.364v6.535a.364.364 0 01-.726 0V13.54c0-.2.163-.364.363-.364zm-1.997 0c.2 0 .363.164.363.364v6.535a.364.364 0 01-.726 0V13.54c0-.2.163-.364.363-.364zm3.994 0c.2 0 .363.164.363.364v6.535a.364.364 0 01-.726 0V13.54c0-.2.163-.364.363-.364zm-.78-3.449h-2.433a.241.241 0 00-.236.236v.853h2.904v-.853a.24.24 0 00-.236-.236z"/></svg><svg width="32" height="32" viewBox="0 0 32 32" id="download" y="419" xmlns="http://www.w3.org/2000/svg"><path d="M15.992 8a.538.538 0 00-.53.537v9.458l-3.381-3.382a.536.536 0 10-.76.76l4.362 4.353.025.018h.003c.004.004.011.008.019.013l.002.001.022.012.003.002.02.009.003.001.021.01.004.001a.123.123 0 00.024.009h.003l.02.007.003.001a.104.104 0 00.024.006h.003l.022.006h.004l.023.003h.003a.09.09 0 00.025.003h.001l.028.001h.027l.048-.003h.001l.036-.006h-.003l.025-.005.024-.006h-.003l.035-.01-.003.001.023-.008h-.004a.14.14 0 00.032-.013l-.003.002.041-.021c.002 0 .002-.001.003-.002l-.002.002.032-.02h-.001l.022-.015-.001.001.035-.028.003-.003.025-.022 4.298-4.298a.536.536 0 00-.374-.923h-.016a.54.54 0 00-.37.162l-3.38 3.382V8.539A.537.537 0 0016 8.002h-.008V8zM9.015 21.978h-.008a.536.536 0 100 1.075h13.985a.538.538 0 100-1.075H9.014z"/></svg><svg width="32" height="32" viewBox="0 0 32 32" id="gift" y="451" xmlns="http://www.w3.org/2000/svg"><path fill="#f55c00" d="M24 11.558h-4.796c1.02-.6 1.412-1.39 1.382-2.077a1.56 1.56 0 00-.511-1.08 1.562 1.562 0 00-1.126-.399c-1.386 0-2.394 1.56-2.949 2.706-.555-1.145-1.563-2.706-2.95-2.706a1.553 1.553 0 00-1.635 1.48c-.03.686.362 1.476 1.38 2.076H8v3.555h.889v8.89H23.11v-8.89H24v-3.555zM18.95 8.89a.676.676 0 01.748.629c.023.54-.612 1.578-3.068 1.953.465-1.049 1.354-2.582 2.32-2.582zm-6.648.629a.677.677 0 01.749-.629c.965 0 1.854 1.533 2.32 2.582-2.457-.375-3.092-1.414-3.069-1.953zM8.89 12.447h6.669l.003 1.777H8.89v-1.777zm.889 10.666v-8h5.785l.018 8H9.778zm12.444 0H16.47l-.018-8h5.77v8zm.89-8.889H16.45l-.004-1.777h6.665v1.777z"/></svg><svg width="32" height="32" viewBox="0 0 32 32" id="input-error" y="483" xmlns="http://www.w3.org/2000/svg"><g fill="none" fill-rule="evenodd"><circle cx="16" cy="16" r="9" fill="#D93131"/><path fill="#FFF" d="M19.094 12.023l.883.883L16.884 16l3.093 3.094-.883.883L16 16.884l-3.094 3.093-.883-.883L15.116 16l-3.093-3.094.883-.883L16 15.116z"/></g></svg><svg width="32" height="32" viewBox="0 0 32 32" id="minus" y="515" xmlns="http://www.w3.org/2000/svg"><path fill="#01426A" fill-rule="evenodd" d="M16.75 15.375H22v2.25H10v-2.25h5.25z"/></svg><svg width="32" height="32" viewBox="0 0 32 32" id="more" y="547" xmlns="http://www.w3.org/2000/svg"><path d="M16 14.5a1.5 1.5 0 11-.001 3.001A1.5 1.5 0 0116 14.5zM16 9.5a1.5 1.5 0 11-.001 3.001A1.5 1.5 0 0116 9.5zM16 19.5a1.5 1.5 0 11-.001 3.001A1.5 1.5 0 0116 19.5z"/></svg><svg width="32" height="32" viewBox="0 0 32 32" id="plus" y="579" xmlns="http://www.w3.org/2000/svg"><path fill="#01426A" fill-rule="evenodd" d="M15.25 10h1.5v5.25H22v1.5h-5.25V22h-1.5v-5.25H10v-1.5h5.25z"/></svg><svg width="32" height="32" viewBox="0 0 32 32" id="plus-c" y="611" xmlns="http://www.w3.org/2000/svg"><path d="M16 0c8.837 0 16 7.163 16 16s-7.163 16-16 16S0 24.837 0 16 7.163 0 16 0zm0 1C7.716 1 1 7.716 1 16c0 8.284 6.716 15 15 15 8.284 0 15-6.716 15-15 0-8.284-6.716-15-15-15zm.625 10v4.375H21v1.25h-4.375V21h-1.25v-4.375H11v-1.25h4.375V11h1.25z"/></svg><svg width="32" height="32" viewBox="0 0 32 32" id="radio" y="643" xmlns="http://www.w3.org/2000/svg"><rect width="19" height="19" x="6.5" y="6.5" rx="9.5" stroke="#979797" fill="none" fill-rule="evenodd"/></svg><svg width="32" height="32" viewBox="0 0 32 32" id="radio-full" y="675" xmlns="http://www.w3.org/2000/svg"><g fill="none" fill-rule="evenodd"><rect width="20" height="20" x="6" y="6" fill="#F55C00" rx="10"/><path fill="#FFF" fill-rule="nonzero" d="M19.222 12.939l1.064 1.058-5.879 5.912-3.468-3.412 1.052-1.069 2.404 2.365z"/></g></svg><svg width="36" height="32" viewBox="0 0 36 32" id="remove" y="707" xmlns="http://www.w3.org/2000/svg"><path fill="#222" fill-rule="evenodd" d="M23.308 11.227l1.06 1.06L20.656 16l3.712 3.712-1.06 1.06-3.713-3.712-3.712 3.713-1.06-1.061L18.534 16l-3.713-3.713 1.06-1.06 3.713 3.712z"/></svg><svg width="32" height="32" viewBox="0 0 32 32" id="remove-w" y="739" xmlns="http://www.w3.org/2000/svg"><path fill="#fff" d="M19.712 11.227l1.061 1.061L17.061 16l3.712 3.712-1.061 1.061L16 17.061l-3.712 3.712-1.061-1.061L14.939 16l-3.712-3.712 1.061-1.061L16 14.939z"/></svg><svg id="serviskaydi" width="32" height="32" viewBox="0 0 32 32" y="771" xmlns="http://www.w3.org/2000/svg"><defs><style>.axcls-1{fill:#0180c9;stroke:#000;stroke-width:.5px}</style></defs><g id="axGroup_12" data-name="Group 12" transform="translate(-9251.406 -995.833)"><g id="axGroup_12-2" data-name="Group 12" transform="translate(9255.406 999.833)"><path id="axPath_1" data-name="Path 1" class="axcls-1" d="M9277.912 1008.985c-.684-.077-1.367-.166-2.05-.243a.28.28 0 01-.269-.2 10.204 10.204 0 00-.294-.722.319.319 0 01.039-.39c.421-.524.836-1.054 1.251-1.584a1.018 1.018 0 00-.082-1.514c-.7-.7-1.394-1.4-2.1-2.095a1.011 1.011 0 00-1.52-.089c-.53.422-1.061.83-1.584 1.252a.3.3 0 01-.371.045c-.242-.115-.491-.211-.74-.307a.282.282 0 01-.2-.249c-.069-.645-.172-1.29-.223-1.941a1.127 1.127 0 00-.837-1.111h-3.576a1.077 1.077 0 00-.824 1c-.07.677-.16 1.348-.236 2.025a.3.3 0 01-.224.281 6.7 6.7 0 00-.7.294.328.328 0 01-.408-.051c-.543-.441-1.093-.869-1.642-1.3a.993.993 0 00-1.386.083c-.153.153-1.31 1.3-1.706 1.712-.038.045-.082.083-.12.121l-.007.006-.326.326a1.013 1.013 0 00-.083 1.495c.416.536.837 1.073 1.258 1.6a.307.307 0 01.045.377c-.108.23-.211.473-.3.715a.306.306 0 01-.281.224c-.556.057-1.1.141-1.66.185-.594.051-1.137.172-1.36.824v3.679a.953.953 0 00.229.485 1.23 1.23 0 00.8.358c.639.07 1.271.153 1.909.224a.371.371 0 01.339.262 4.553 4.553 0 00.236.575.4.4 0 01-.07.479q-.612.757-1.207 1.533a1.158 1.158 0 00-.275.8 1.356 1.356 0 00.461.849c.613.62 1.232 1.239 1.852 1.852.7.709 1.162.734 1.948.1.446-.364.9-.709 1.348-1.067a.349.349 0 01.4-.064c.211.1.422.185.633.262a.358.358 0 01.242.332c.071.664.16 1.322.23 1.98a1.028 1.028 0 00.837.964h3.666a1.119 1.119 0 00.778-.971c.07-.69.16-1.367.236-2.057a.293.293 0 01.217-.281 5.781 5.781 0 00.716-.3.319.319 0 01.39.051c.518.415 1.041.824 1.565 1.239a1.012 1.012 0 001.525-.083c.69-.69 1.38-1.386 2.076-2.076a1.025 1.025 0 00.089-1.545c-.415-.53-.824-1.06-1.245-1.59a.289.289 0 01-.051-.351c.114-.243.217-.485.313-.734a.3.3 0 01.287-.217c.684-.077 1.36-.16 2.044-.243a1 1 0 00.971-1.092v-3.034a1.012 1.012 0 00-.973-1.088zm.294 4.094c0 .332-.076.415-.409.453-.715.083-1.424.172-2.139.262a.807.807 0 00-.671.549c-.108.262-.2.53-.326.779a.918.918 0 00.134 1.067c.416.517.824 1.047 1.233 1.571.236.3.229.377-.032.639-.683.69-1.373 1.379-2.057 2.069-.262.255-.345.262-.645.026-.524-.415-1.047-.818-1.565-1.239a.9.9 0 00-1.06-.128 7.227 7.227 0 01-.7.287.932.932 0 00-.658.824c-.076.69-.159 1.373-.242 2.057-.032.294-.121.383-.421.383h-2.983c-.332 0-.408-.083-.446-.415-.083-.715-.173-1.431-.262-2.139a.808.808 0 00-.53-.664c-.274-.115-.556-.224-.824-.351a.893.893 0 00-1 .128c-.542.434-1.092.862-1.641 1.29-.25.192-.352.185-.569-.032-.708-.7-1.411-1.411-2.113-2.114-.23-.236-.236-.332-.032-.588.429-.549.856-1.1 1.29-1.648a.883.883 0 00.122-.984 10.807 10.807 0 01-.307-.741.931.931 0 00-.831-.651c-.677-.077-1.354-.16-2.024-.236-.319-.038-.4-.121-.4-.434v-2.963c0-.351.07-.428.415-.466.709-.083 1.411-.172 2.114-.262a.828.828 0 00.7-.562c.1-.249.191-.5.307-.734a.967.967 0 00-.141-1.13c-.422-.511-.824-1.041-1.232-1.565-.211-.268-.205-.358.038-.607.108-.109.211-.211.313-.319a.646.646 0 00.071-.064.141.141 0 01.044-.045c.39-.383 1.52-1.526 1.654-1.654.243-.249.332-.249.606-.038.55.434 1.105.869 1.654 1.3a.848.848 0 00.926.115c.256-.115.518-.224.779-.326a.91.91 0 00.639-.811c.083-.677.166-1.354.243-2.031.038-.345.114-.415.466-.415h2.912c.371 0 .44.07.479.428.083.7.172 1.411.261 2.12a.819.819 0 00.544.677c.262.109.53.2.778.326a.918.918 0 001.066-.128c.53-.434 1.08-.856 1.616-1.277.236-.185.345-.179.556.032q1.053 1.054 2.107 2.114c.243.243.249.332.032.607-.428.549-.855 1.1-1.284 1.641a.876.876 0 00-.121.964c.108.249.224.492.313.741a.907.907 0 00.823.658c.671.083 1.348.166 2.024.243.333.038.409.115.409.447z" transform="translate(-9255.406 -999.833)"/><path id="axPath_2" data-name="Path 2" d="M9273.715 1011.743a.613.613 0 00-1 .536c.006.588 0 1.162.006 1.75a.279.279 0 01-.089.243q-.365.335-.709.69c-.077.077-.128.07-.2-.013-.2-.211-.408-.415-.619-.613a.4.4 0 01-.135-.319c.006-.588.006-1.182 0-1.769a.6.6 0 00-.945-.536 3.457 3.457 0 00.153 5.946.246.246 0 01.147.249c-.013.281-.006 2.005 0 2.606v.562a5.433 5.433 0 00.728.16.19.19 0 01-.044-.16 4.446 4.446 0 000-.4v-.038c.006-.358.006-2.248 0-2.459-.007-.147.025-.185.172-.153a2.981 2.981 0 001.322.006c.146-.032.18-.006.18.141-.008.971-.008 1.929 0 2.9a.238.238 0 01-.045.16 5.452 5.452 0 00.727-.16v-.236c0-.952.007-1.9 0-2.848a.352.352 0 01.2-.358 3.453 3.453 0 00.151-5.887zm.824 3.519a2.755 2.755 0 01-5.352.1 2.709 2.709 0 011.1-2.97c0 .556.013 1.092-.007 1.635a.927.927 0 00.332.786c.256.236.5.5.748.747a.594.594 0 00.912.013c.307-.287.607-.581.914-.875a.693.693 0 00.217-.53v-1.768a2.7 2.7 0 011.136 2.862zm-2.344 5.831v-1.68c-.007-.249-.121-.383-.326-.4-.224-.013-.357.128-.364.4-.007.562 0 1.118 0 1.68 0 .064.026.16-.032.185.129.006.25.013.377.013s.249-.006.377-.013c-.057-.026-.027-.122-.027-.185z" transform="translate(-9260.105 -1004.085)" fill="#0180c9"/></g><path id="axPath_3" data-name="Path 3" class="axcls-1" d="M9276.348 1013.6a6.761 6.761 0 00-.146-.581 4.989 4.989 0 00-.211-.588 7.097 7.097 0 00-.269-.562.449.449 0 00-.045-.077c-.051-.1-.108-.192-.166-.287-.006-.013-.019-.026-.025-.038-.063-.1-.128-.185-.191-.275a6.294 6.294 0 00-1.194-1.239s0-.006-.006-.006c-.09-.07-.18-.134-.275-.2-.186-.121-.37-.236-.562-.345a6.144 6.144 0 00-2.932-.741c-.108 0-.211 0-.319.006s-.2.013-.294.026a5.59 5.59 0 00-.8.134c-.1.019-.185.045-.274.07a5.951 5.951 0 00-.7.249.462.462 0 00-.127.057 2.217 2.217 0 00-.218.1 5.674 5.674 0 00-.926.568c-.007 0-.013 0-.013.006a6.3 6.3 0 00-1.725 1.993.023.023 0 00-.007.019 6.252 6.252 0 00-.428.99c-.025.089-.051.172-.076.262a6.033 6.033 0 00-.186 2.357c.013.1.025.2.039.294a6.186 6.186 0 004.815 5.02 6.119 6.119 0 001.238.128h.013a4.535 4.535 0 00.5-.026 4.9 4.9 0 00.511-.064 6.094 6.094 0 001.6-.5.069.069 0 00.032-.013 6.208 6.208 0 003.449-5.02 4.588 4.588 0 00.025-.517 6.193 6.193 0 00-.107-1.2zm-.594 1.475c0 .077-.007.153-.013.23a.461.461 0 00-.013.1 1.264 1.264 0 01-.032.224 1.829 1.829 0 01-.045.268 5.624 5.624 0 01-.152.568 1.305 1.305 0 01-.071.2 1.51 1.51 0 01-.1.243 1.323 1.323 0 01-.108.243 1.215 1.215 0 01-.121.236c-.083.153-.173.3-.269.447a3.373 3.373 0 01-.312.422 5.265 5.265 0 01-1.719 1.392 4.1 4.1 0 01-.849.332.681.681 0 01-.109.032 5.452 5.452 0 01-.728.16c-.07.083-.217.019-.319.045a.121.121 0 01-.1 0c-.128.006-.249.013-.377.013s-.249-.006-.377-.013a.138.138 0 01-.1 0c-.1-.026-.256.038-.313-.045a5.452 5.452 0 01-.728-.16v.006a2.883 2.883 0 01-.243-.07 4.056 4.056 0 01-.594-.255 3.255 3.255 0 01-.46-.249 1.5 1.5 0 01-.217-.134c-.007-.006-.007-.013-.013-.013a2.72 2.72 0 01-.415-.307 5.307 5.307 0 01-1.865-3.1 3.252 3.252 0 01-.077-.5 5.957 5.957 0 01-.025-.326 5.552 5.552 0 01.052-1.124 1.732 1.732 0 01.051-.249 5.439 5.439 0 0110.381-.9l.02.055a5.052 5.052 0 01.252.85 3.161 3.161 0 01.083.543 4.534 4.534 0 01.025.832z" transform="translate(-3.174 -3.187)"/></g><path id="axRectangle_24" data-name="Rectangle 24" d="M0 0h32v32H0z" fill="none"/></svg><svg width="24" height="24" viewBox="0 0 24 24" id="star" y="803" xmlns="http://www.w3.org/2000/svg"><path fill="#989898" d="M24 9.23h-9.167L12 0 9.167 9.23H0l7.416 5.602-2.832 9.128L12 18.269 19.416 24l-2.832-9.175z" opacity=".504"/></svg><svg width="24" height="24" viewBox="0 0 24 24" id="star-full" y="827" xmlns="http://www.w3.org/2000/svg"><path fill="#F55C00" d="M24 9.23h-9.167L12 0 9.167 9.23H0l7.416 5.602-2.832 9.128L12 18.269 19.416 24l-2.832-9.175z"/></svg><svg width="68" height="32" viewBox="0 0 68 32" id="stars-alt-empty" y="851" xmlns="http://www.w3.org/2000/svg"><path d="M12 14.615H7.416L6 10l-1.416 4.615H0l3.708 2.801-1.416 4.564L6 19.134 9.708 22l-1.416-4.587zm14 0h-4.584L20 10l-1.416 4.615H14l3.708 2.801-1.416 4.564L20 19.134 23.708 22l-1.416-4.587zm14 0h-4.584L34 10l-1.416 4.615H28l3.708 2.801-1.416 4.564L34 19.134 37.708 22l-1.416-4.587zm14 0h-4.584L48 10l-1.416 4.615H42l3.708 2.801-1.416 4.564L48 19.134 51.708 22l-1.416-4.587zm14 0h-4.584L62 10l-1.416 4.615H56l3.708 2.801-1.416 4.564L62 19.134 65.708 22l-1.416-4.587z" fill="#989898" opacity=".504"/></svg><svg width="68" height="32" viewBox="0 0 68 32" id="stars-alt-full" y="883" xmlns="http://www.w3.org/2000/svg"><g fill-rule="nonzero" fill="none"><path fill="#F55C00" d="M12 14.615H7.416L6 10l-1.416 4.615H0l3.708 2.801-1.416 4.564L6 19.134 9.708 22l-1.416-4.587zm14 0h-4.584L20 10l-1.416 4.615H14l3.708 2.801-1.416 4.564L20 19.134 23.708 22l-1.416-4.587zm14 0h-4.584L34 10l-1.416 4.615H28l3.708 2.801-1.416 4.564L34 19.134 37.708 22l-1.416-4.587zm14 0h-4.584L48 10l-1.416 4.615H42l3.708 2.801-1.416 4.564L48 19.134 51.708 22l-1.416-4.587z"/><path fill="#AAA" d="M68 14.615h-4.584L62 10l-1.416 4.615H56l3.708 2.801-1.416 4.564L62 19.134 65.708 22l-1.416-4.587z" opacity=".496"/><path fill="#F55C00" d="M68 14.615h-4.584L62 10l-1.416 4.615H56l3.708 2.801-1.416 4.564L62 19.134 65.708 22l-1.416-4.587z"/></g></svg><svg width="68" height="32" viewBox="0 0 68 32" id="stars-empty" y="915" xmlns="http://www.w3.org/2000/svg"><path d="M12 14.615H7.416L6 10l-1.416 4.615H0l3.708 2.801-1.416 4.564L6 19.134 9.708 22l-1.416-4.587zm14 0h-4.584L20 10l-1.416 4.615H14l3.708 2.801-1.416 4.564L20 19.134 23.708 22l-1.416-4.587zm14 0h-4.584L34 10l-1.416 4.615H28l3.708 2.801-1.416 4.564L34 19.134 37.708 22l-1.416-4.587zm14 0h-4.584L48 10l-1.416 4.615H42l3.708 2.801-1.416 4.564L48 19.134 51.708 22l-1.416-4.587zm14 0h-4.584L62 10l-1.416 4.615H56l3.708 2.801-1.416 4.564L62 19.134 65.708 22l-1.416-4.587z" fill="silver"/></svg><svg width="68" height="32" viewBox="0 0 68 32" id="stars-full" y="947" xmlns="http://www.w3.org/2000/svg"><path d="M12 14.615H7.416L6 10l-1.416 4.615H0l3.708 2.801-1.416 4.564L6 19.134 9.708 22l-1.416-4.587zm14 0h-4.584L20 10l-1.416 4.615H14l3.708 2.801-1.416 4.564L20 19.134 23.708 22l-1.416-4.587zm14 0h-4.584L34 10l-1.416 4.615H28l3.708 2.801-1.416 4.564L34 19.134 37.708 22l-1.416-4.587zm14 0h-4.584L48 10l-1.416 4.615H42l3.708 2.801-1.416 4.564L48 19.134 51.708 22l-1.416-4.587zm14 0h-4.584L62 10l-1.416 4.615H56l3.708 2.801-1.416 4.564L62 19.134 65.708 22l-1.416-4.587z" fill="#222"/></svg><svg width="32" height="32" style="background:#222" viewBox="0 0 32 32" id="swipe" y="979" xmlns="http://www.w3.org/2000/svg"><path d="M0 16C0 7.163 7.163 0 16 0s16 7.163 16 16-7.163 16-16 16S0 24.837 0 16zm1 0c0 8.284 6.716 15 15 15 8.284 0 15-6.716 15-15 0-8.284-6.716-15-15-15C7.716 1 1 7.716 1 16zm17.5-2.752l.659-.748 4.341 4.006-4.342 3.994-.657-.75 3.528-3.245-3.529-3.257zm-10 3.258l4.341-4.006.659.748-3.529 3.257L13.5 19.75l-.657.749L8.5 16.506z" fill="#FFF" fill-rule="nonzero"/></svg><svg width="32" height="32" viewBox="0 0 32 32" id="swiper-next" y="1011" xmlns="http://www.w3.org/2000/svg"><path fill="#FFF" d="M0 16C0 7.163 7.163 0 16 0s16 7.163 16 16-7.163 16-16 16S0 24.837 0 16zm1 0c0 8.284 6.716 15 15 15 8.284 0 15-6.716 15-15 0-8.284-6.716-15-15-15C7.716 1 1 7.716 1 16zm13-3.2l.67-.743 4.412 3.977L14.67 20l-.668-.744 3.586-3.223L14 12.8z"/></svg><svg width="32" height="32" viewBox="0 0 32 32" id="swiper-next-dark" y="1043" xmlns="http://www.w3.org/2000/svg"><path fill="#222" d="M0 16C0 7.163 7.163 0 16 0s16 7.163 16 16-7.163 16-16 16S0 24.837 0 16zm1 0c0 8.284 6.716 15 15 15 8.284 0 15-6.716 15-15 0-8.284-6.716-15-15-15C7.716 1 1 7.716 1 16zm13-3.2l.67-.743 4.412 3.977L14.67 20l-.668-.744 3.586-3.223L14 12.8z" opacity=".5"/></svg><svg width="64" height="64" viewBox="0 0 64 64" id="video" y="1075" xmlns="http://www.w3.org/2000/svg"><g fill="none" fill-rule="evenodd"><circle cx="32" cy="32" r="31.25" stroke="#FFF" stroke-width="1.5"/><path fill="#FFF" d="M41 33L27 43V23z"/></g></svg><svg width="32" height="32" viewBox="0 0 32 32" id="video-type" y="1139" xmlns="http://www.w3.org/2000/svg"><g fill="none" fill-rule="evenodd"><circle cx="16" cy="16" r="10.5" stroke="#F6F6F6"/><path fill="#F6F6F6" d="M20 16l-6 4v-8z"/></g></svg><svg width="32" height="32" viewBox="0 0 32 32" id="video-type-dark" y="1171" xmlns="http://www.w3.org/2000/svg"><g fill="none" fill-rule="evenodd"><circle cx="16" cy="16" r="10.5" stroke="#222"/><path fill="#222" d="M20 16l-6 4v-8z"/></g></svg></svg>