<svg xmlns="http://www.w3.org/2000/svg" xmlns:xlink="http://www.w3.org/1999/xlink" width="150" height="50" viewBox="0 0 150 50">
    <defs>
        <path id="prefix__a" d="M0 0L99.706 0 99.706 15.251 0 15.251z"/>
    </defs>
    <g fill="none" fill-rule="evenodd" transform="translate(0 17)">
        <mask id="prefix__b" fill="#fff">
            <use xlink:href="#prefix__a"/>
        </mask>
        <path fill="#782A90" d="M24.13.327c.185 0 .293.178.25.335L20.635 14.7c-.03.113-.15.205-.267.205h-6.19c-.127 0-.232-.094-.261-.206L12.303 8.21c-.049-.194-.15-.196-.2 0l-1.566 6.488c-.027.112-.123.206-.262.206H3.984c-.132 0-.236-.092-.265-.205L.006.643C-.026.52.066.327.266.327h6.15c.115 0 .23.067.259.222L7.97 7.456c.034.175.181.175.214-.005L9.567.544c.027-.117.118-.218.263-.218l4.824.001c.126 0 .232.096.254.21l1.311 6.92c.033.175.162.174.196 0l1.402-6.92c.02-.114.136-.21.252-.21h6.061zm41.633.27c0-.16.127-.267.264-.27h5.285c.116 0 .265.089.265.274v9.185c0 .07.063.124.132.124h8.635c.142 0 .262.115.262.271v4.465c0 .126-.102.258-.264.258h-14.32c-.145 0-.26-.124-.26-.263V.597zm33.943 7.038c0-2.927-.513-5.593-3.111-6.693C94.86.206 91.885.126 90.373.15c-5.074.084-8.055.386-8.055.386-.128.01-.238.111-.238.268v13.663c0 .153.138.248.207.255 2.247.253 5.186.407 8.086.407 1.513 0 4.707-.205 6.222-.819 2.621-1.044 3.111-3.747 3.111-6.675zM87.854 9.963V5.406c0-.095.078-.13.12-.135.695-.056 1.694-.091 2.6-.091 2.807 0 3.012.552 3.012 2.538 0 1.987-.205 2.539-3.012 2.539-.94 0-2.51-.09-2.51-.09-.202-.007-.21-.087-.21-.204zM37.568 7.718c0-2.232-.512-2.968-3.153-2.968-2.64 0-3.174.736-3.174 2.968 0 2.23.533 2.97 3.174 2.97 2.64 0 3.153-.74 3.153-2.97zm6.264-.102c0 2.927-.49 5.794-3.11 6.837-1.23.492-3.38.798-6.327.798-2.95 0-5.118-.306-6.347-.798-2.62-1.043-3.112-3.91-3.112-6.837 0-2.928.492-5.774 3.112-6.818C29.277.308 31.446 0 34.395 0c2.947 0 5.097.308 6.326.798 2.62 1.044 3.111 3.89 3.111 6.818zm20.341 6.838c-1.479-1.478-3.136-2.974-4.942-4.38l-.234-.186c.1-.013.197-.03.293-.047 2.55-.465 3.922-2.834 3.922-4.702 0-2.048-.495-3.92-3.05-4.668C57.896-.193 45.926.19 45.926.19c-.118.008-.239.107-.244.257l-.002 14.198c0 .13.107.26.262.26l5.297-.002c.13 0 .258-.102.258-.258v-4.588s0-.072.065-.113c.051-.034.113-.02.16.022.019.014 3.704 3.169 5.192 4.862.044.048.107.08.178.08h6.897c.111 0 .18-.054.234-.137.054-.081.045-.222-.05-.318zM51.497 7.106V4.47s-.006-.056.039-.096c.021-.02.05-.037.089-.037.715 0 1.457-.027 2.185-.027.665 0 1.374.017 2.027.035.89.025 1.315.426 1.315 1.285 0 1.09-.428 1.56-1.356 1.587-.654.02-1.321.028-1.986.028-.737 0-1.466.003-2.189-.02-.122-.072-.124-.12-.124-.12z" mask="url(#prefix__b)"/>
    </g>
</svg>
