<svg xmlns="http://www.w3.org/2000/svg" width="110" height="18" viewBox="0 0 110 18">
    <g fill="none">
        <ellipse cx="8.98" cy="9" fill="#EB001B" rx="8.98" ry="9"/>
        <ellipse cx="19.456" cy="9" fill="#F79E1B" rx="8.98" ry="9"/>
        <path fill="#FF5F00" d="M14.218 1.688c2.276 1.674 3.741 4.327 3.741 7.31 0 2.982-1.465 5.64-3.741 7.315-2.276-1.675-3.742-4.328-3.742-7.315 0-2.988 1.47-5.636 3.742-7.31z"/>
        <path fill="#000" d="M43.784 5.517c1.516 0 2.588 1.044 2.588 2.539v4.008h-1.398V8.516c0-1.074-.553-1.673-1.481-1.673-.899 0-1.65.594-1.65 1.688v3.538h-1.397V8.521c0-1.074-.553-1.673-1.481-1.673-.899 0-1.65.594-1.65 1.688v3.538h-1.397V5.69h1.383v.777c.513-.752 1.304-.945 1.955-.945.973 0 1.763.43 2.203 1.138.553-.92 1.535-1.143 2.325-1.143zm10.696.163v6.384h-1.388v-.767c-.44.564-1.096.93-2 .93-1.782 0-3.185-1.405-3.185-3.355s1.403-3.355 3.185-3.355c.904 0 1.56.371 2 .94V5.68h1.388zm-3.225 1.148c-1.195 0-1.92.926-1.92 2.044 0 1.119.725 2.044 1.92 2.044 1.15 0 1.92-.88 1.92-2.044 0-1.163-.77-2.044-1.92-2.044zm10.216-.633l-.597 1.084c-.385-.238-1.175-.545-1.965-.545-.756 0-1.205.307-1.205.757 0 .446.464.575 1.052.659l.656.099c1.388.198 2.212.791 2.212 1.885 0 1.228-1.061 2.084-2.898 2.084-.657 0-1.802-.129-2.73-.822l.646-1.044c.46.351 1.062.653 2.099.653.948 0 1.447-.302 1.447-.777 0-.361-.346-.599-1.102-.707l-.666-.085c-1.407-.193-2.158-.846-2.158-1.87 0-1.267 1.012-2.044 2.632-2.044.997 0 1.92.247 2.577.673zm6.01-.515v1.267h-2.44v2.776c0 .862.455 1.193 1.013 1.193.43 0 .903-.193 1.284-.43l.553 1.113c-.514.347-1.156.634-1.956.634-1.442 0-2.286-.777-2.286-2.48V6.947H62.38V5.68h1.269V3.75h1.397v1.93h2.435zm4.286-.163c1.782 0 3.002 1.36 3.012 3.35 0 .178-.015.362-.025.52h-4.706c.188 1.148.993 1.623 1.896 1.623.637 0 1.319-.252 1.842-.673l.692.995c-.776.668-1.655.9-2.617.9-1.906 0-3.26-1.33-3.26-3.355-.004-2.004 1.294-3.36 3.166-3.36zm-.025 1.237c-.992 0-1.54.638-1.689 1.574h3.304c-.153-.995-.731-1.574-1.615-1.574zm7.861-1.237c.425 0 .75.054 1.071.178l-.33 1.38c-.292-.153-.716-.232-1.057-.232-.884 0-1.516.629-1.516 1.712v3.51h-1.387V5.68h1.377v.718c.415-.604 1.067-.881 1.842-.881zm5.753 0c1.782 0 3.184 1.405 3.184 3.355s-1.402 3.356-3.184 3.356c-.904 0-1.556-.367-1.995-.926v3.425h-1.388V5.68h1.388v.757c.44-.554 1.09-.92 1.995-.92zm-.168 1.311c-1.15 0-1.921.881-1.921 2.044s.77 2.044 1.92 2.044c1.196 0 1.921-.925 1.921-2.044 0-1.118-.725-2.044-1.92-2.044zM96.253 5.68v6.384h-1.387v-.767c-.44.564-1.097.93-2 .93-1.783 0-3.185-1.405-3.185-3.355s1.402-3.355 3.185-3.355c.903 0 1.56.371 2 .94V5.68h1.387zM93.03 6.828c-1.195 0-1.921.926-1.921 2.044 0 1.119.726 2.044 1.92 2.044 1.151 0 1.922-.88 1.922-2.044 0-1.163-.77-2.044-1.921-2.044zm10.216-.633l-.597 1.084c-.386-.238-1.176-.545-1.966-.545-.755 0-1.204.307-1.204.757 0 .446.464.575 1.051.659l.657.099c1.388.198 2.212.791 2.212 1.885 0 1.228-1.061 2.084-2.898 2.084-.657 0-1.803-.129-2.73-.822l.646-1.044c.46.351 1.062.653 2.099.653.948 0 1.446-.302 1.446-.777 0-.361-.345-.599-1.1-.707l-.667-.085c-1.408-.193-2.158-.846-2.158-1.87 0-1.267 1.012-2.044 2.632-2.044.997 0 1.92.247 2.577.673zm6.602 0l-.598 1.084c-.385-.238-1.175-.545-1.965-.545-.755 0-1.205.307-1.205.757 0 .446.465.575 1.052.659l.657.099c1.387.198 2.212.791 2.212 1.885 0 1.228-1.062 2.084-2.898 2.084-.657 0-1.803-.129-2.731-.822l.647-1.044c.459.351 1.061.653 2.098.653.948 0 1.447-.302 1.447-.777 0-.361-.346-.599-1.101-.707l-.667-.085c-1.407-.193-2.157-.846-2.157-1.87 0-1.267 1.012-2.044 2.631-2.044.998 0 1.921.247 2.578.673z"/>
    </g>
</svg>
