<svg xmlns="http://www.w3.org/2000/svg" width="75" height="75" viewBox="0 0 75 75">
    <g fill="#FFF" fill-rule="evenodd">
        <path d="M37 21c8.822 0 16 7.178 16 16h-2.081c0-7.675-6.244-13.919-13.919-13.919-7.675 0-13.919 6.244-13.919 13.919H21c0-8.822 7.178-16 16-16zm0 7.22c4.842 0 8.78 3.938 8.78 8.78H43.7c0-3.694-3.006-6.7-6.7-6.7-3.694 0-6.7 3.006-6.7 6.7h-2.08c0-4.842 3.938-8.78 8.78-8.78zm0-3.643c6.85 0 12.423 5.573 12.423 12.423H47.34c0-5.702-4.639-10.341-10.341-10.341-5.702 0-10.341 4.639-10.341 10.341h-2.082c0-6.85 5.573-12.423 12.423-12.423z"/>
        <path fill-rule="nonzero" d="M24.186 52l2.338-7.91L28.792 52h1.12l2.604-10.01h-1.134l-2.058 8.106-2.352-8.106h-.868l-2.352 8.078-2.03-8.078h-1.246L23.08 52h1.106zm14.252.126c1.12 0 2.053-.285 2.8-.854.747-.57 1.209-1.433 1.386-2.59H41.49c-.13.821-.462 1.435-.994 1.841-.532.406-1.209.609-2.03.609-.541 0-1.024-.093-1.449-.28-.425-.187-.784-.455-1.078-.805-.294-.35-.52-.78-.679-1.288-.159-.509-.238-1.08-.238-1.715v-.112c0-.635.084-1.206.252-1.715.168-.509.401-.94.7-1.295.299-.355.663-.63 1.092-.826.43-.196.9-.294 1.414-.294.859 0 1.514.194 1.967.581.453.387.744.964.875 1.729h1.204c-.056-.541-.2-1.017-.434-1.428-.233-.41-.532-.751-.896-1.022-.364-.27-.78-.476-1.246-.616-.467-.14-.961-.21-1.484-.21-.681 0-1.309.126-1.883.378-.574.252-1.071.607-1.491 1.064-.42.457-.747.996-.98 1.617-.233.62-.35 1.304-.35 2.051v.112c0 .765.107 1.46.322 2.086.215.625.525 1.16.931 1.603.406.443.896.784 1.47 1.022s1.225.357 1.953.357zm10.388 0c.644 0 1.232-.096 1.764-.287.532-.191.99-.474 1.372-.847.383-.373.679-.835.889-1.386.21-.55.315-1.19.315-1.918v-.742H49.05v1.008h2.926c-.01.448-.077.866-.203 1.253-.126.387-.317.723-.574 1.008-.257.285-.581.511-.973.679-.392.168-.859.252-1.4.252-.588 0-1.106-.098-1.554-.294-.448-.196-.821-.471-1.12-.826-.299-.355-.525-.786-.679-1.295-.154-.509-.231-1.071-.231-1.687v-.112c0-.616.082-1.176.245-1.68.163-.504.399-.938.707-1.302.308-.364.686-.646 1.134-.847.448-.2.957-.301 1.526-.301.728 0 1.346.168 1.855.504.509.336.833.905.973 1.708H52.9c-.075-.56-.236-1.04-.483-1.442-.247-.401-.555-.73-.924-.987s-.782-.446-1.239-.567c-.457-.121-.933-.182-1.428-.182-.719 0-1.374.128-1.967.385s-1.104.614-1.533 1.071c-.43.457-.76.999-.994 1.624-.233.625-.35 1.302-.35 2.03v.112c0 .728.107 1.402.322 2.023.215.62.53 1.157.945 1.61.415.453.924.805 1.526 1.057.602.252 1.286.378 2.051.378z"/>
    </g>
</svg>
