<svg xmlns="http://www.w3.org/2000/svg" width="75" height="75" viewBox="0 0 75 75">
    <path fill="#FFF" fill-rule="evenodd" d="M28.016 30v14.571h-.678V30h.678zm-12.722 0c4.029 0 7.294 3.262 7.294 7.286 0 4.024-3.265 7.285-7.294 7.285C11.266 44.571 8 41.31 8 37.286S11.266 30 15.294 30zm39.015 0c4.029 0 7.294 3.262 7.294 7.286 0 3.943-3.136 7.155-7.053 7.282l-.24.003v-.677c3.653 0 6.615-2.959 6.615-6.608 0-3.572-2.837-6.482-6.384-6.604l-.232-.004V30zM37.176 43.894v.677h-8.82v-.677h8.82zm12.214 0v.677h-8.82v-.677h8.82zM15.294 30.678c-3.654 0-6.615 2.958-6.615 6.608 0 3.65 2.961 6.608 6.615 6.608 3.654 0 6.616-2.959 6.616-6.608 0-3.65-2.962-6.608-6.616-6.608zm34.096 6.1v.677h-8.82v-.678h8.82zm15.72-6.102l.121.347v.034h-1.093v3.01H63.7v-3.01h-1.115v-.381h2.524zm.478 0l.967 2.923.967-2.923H68l-1.19 3.39h-.51l-1.069-3.043v-.347h.357zM49.39 30v.678h-8.82V30h8.82z"/>
</svg>
