<svg xmlns="http://www.w3.org/2000/svg" width="75" height="75" viewBox="0 0 75 75">
    <path fill="#FFF" d="M21 34.29v8.473h5.792l8.13 5.863v-20.2l-8.13 5.863H21zm26.512-9.799c3.1 3.843 4.962 8.725 4.962 14.035 0 5.31-1.862 10.193-4.962 14.036l-.961-.736c2.944-3.638 4.712-8.265 4.712-13.3 0-5.034-1.768-9.661-4.712-13.3zm-4.324 3.308c2.397 2.924 3.838 6.66 3.838 10.727 0 4.068-1.44 7.804-3.838 10.728l-.961-.735c2.241-2.72 3.589-6.202 3.589-9.993 0-3.79-1.348-7.273-3.59-9.992zm-9.477 2.993V46.26l-6.529-4.707h-4.971V35.5h4.971l6.529-4.708zm5.145.32c1.695 2.004 2.723 4.59 2.723 7.414 0 2.825-1.028 5.41-2.723 7.414l-.963-.737c1.54-1.799 2.475-4.129 2.475-6.677s-.936-4.878-2.475-6.677z"/>
</svg>
