<svg xmlns="http://www.w3.org/2000/svg" width="24.503" height="12.44" viewBox="0 0 24.503 12.44">
    <path data-name="Path 13" d="M24.2 4.04A6.127 6.127 0 0 0 18.684 0a6.842 6.842 0 0 0-5.014 1.979 9.353 9.353 0 0 0-1.438 1.788 9.072 9.072 0 0 0-1.438-1.788A6.758 6.758 0 0 0 5.818 0 6.133 6.133 0 0 0 .26 4.04a5.967 5.967 0 0 0 .35 4.47 4.445 4.445 0 0 0 4.12 2.6 3.6 3.6 0 0 0 3.187-2.173 3.151 3.151 0 0 0-.7-3.459 1.214 1.214 0 0 1-.194.933 1.428 1.428 0 0 1-1.71.466 1.117 1.117 0 0 1-.739-1.244 1.291 1.291 0 0 1 .816-1.011 1.845 1.845 0 0 1 2.177.505C8.695 6.411 8.85 8.354 9.394 9.792a3.282 3.282 0 0 0 2.332 2.565 1.067 1.067 0 0 0 .505.078 2.216 2.216 0 0 0 .505-.039 3.344 3.344 0 0 0 2.332-2.565c.544-1.477.661-3.421 1.827-4.664a1.845 1.845 0 0 1 2.177-.505 1.353 1.353 0 0 1 .816 1.011 1.16 1.16 0 0 1-.739 1.244 1.393 1.393 0 0 1-1.71-.466 1.112 1.112 0 0 1-.194-.933 3.151 3.151 0 0 0-.7 3.459 3.6 3.6 0 0 0 3.187 2.177 4.366 4.366 0 0 0 4.12-2.6A6.081 6.081 0 0 0 24.2 4.04zm-2.679 4.586a2.545 2.545 0 0 1-2.76.505 1.84 1.84 0 0 1-1.011-1.166 2.118 2.118 0 0 0 3.265-.194 2.976 2.976 0 0 0 .506-3.071 3.229 3.229 0 0 0-2.527-1.9 3.868 3.868 0 0 0-3.887 1.633c-1.127 1.788-1.283 3.77-2.1 5.753a.8.8 0 0 1-.739.466.741.741 0 0 1-.739-.466c-.813-1.986-.969-3.97-2.135-5.758a3.913 3.913 0 0 0-3.887-1.593 3.229 3.229 0 0 0-2.527 1.9 2.872 2.872 0 0 0 .466 3.032 2.144 2.144 0 0 0 3.265.194A1.859 1.859 0 0 1 5.7 9.131a2.633 2.633 0 0 1-2.76-.505 3.835 3.835 0 0 1-.894-4.12A4.136 4.136 0 0 1 5.7 1.863a5.275 5.275 0 0 1 4.742 2.527c.194.389.661 1.4.661 1.4h2.254s.428-1.011.661-1.4a5.2 5.2 0 0 1 4.742-2.527 4.266 4.266 0 0 1 3.654 2.643 3.85 3.85 0 0 1-.893 4.12z" transform="translate(.02 .005)" style="fill:#fff"/>
</svg>
